<svg  viewBox="0 0 7.0293 15.1748" fill="none" xmlns="http://www.w3.org/2000/svg" xmlns:xlink="http://www.w3.org/1999/xlink">
	<desc>
			Created with Pixso.
	</desc>
	<defs/>
	<mask id="mask_4_7559" fill="white">
		<path id="Path 13" d="M6.76953 7.58789L4.64941 7.58789L4.64941 15.1748L1.4873 15.1748L1.4873 7.58789L0 7.58789L0 4.90918L1.4873 4.90918L1.4873 3.16113C1.4873 1.93359 2.08301 0 4.64941 0L6.99219 0L6.99219 2.60352L5.31836 2.60352C5.05859 2.60352 4.64941 2.75195 4.64941 3.34766L4.64941 4.90918L7.0293 4.90918L6.76953 7.58789Z" clip-rule="evenodd" fill="" fill-opacity="1.000000" fill-rule="evenodd"/>
	</mask>
	<path id="Path 13" d="M6.76953 7.58789L4.64941 7.58789L4.64941 15.1748L1.4873 15.1748L1.4873 7.58789L0 7.58789L0 4.90918L1.4873 4.90918L1.4873 3.16113C1.4873 1.93359 2.08301 0 4.64941 0L6.99219 0L6.99219 2.60352L5.31836 2.60352C5.05859 2.60352 4.64941 2.75195 4.64941 3.34766L4.64941 4.90918L7.0293 4.90918L6.76953 7.58789Z" clip-rule="evenodd" fill="#535353" fill-opacity="1.000000" fill-rule="evenodd" mask="url(#mask_4_7559)"/>
	<path id="Path 13" d="" fill="#707070" fill-opacity="0.000000" fill-rule="nonzero"/>
</svg>
