<svg width="99" height="26" viewBox="0 0 99 26" fill="none" xmlns="http://www.w3.org/2000/svg">
<path d="M25.8846 9.43555H35.8476V11.2903H31.9248V21.7458H29.7746V11.2903H25.8682L25.8846 9.43555ZM35.4209 12.8332H37.2592V14.5566H37.292C37.3577 14.3104 37.4726 14.0806 37.6367 13.8508C37.8009 13.621 37.9978 13.4076 38.244 13.2271C38.4738 13.0301 38.7364 12.8824 39.0319 12.7675C39.3109 12.6526 39.6064 12.587 39.9018 12.587C40.1316 12.587 40.2957 12.6034 40.3778 12.6034C40.4599 12.6198 40.5583 12.6362 40.6404 12.6362V14.5238C40.5091 14.4909 40.3614 14.4745 40.2137 14.4581C40.0659 14.4417 39.9346 14.4253 39.7869 14.4253C39.4586 14.4253 39.1468 14.4909 38.8513 14.6222C38.5559 14.7536 38.3097 14.9505 38.0799 15.1967C37.8665 15.4593 37.686 15.7712 37.5547 16.1487C37.4233 16.5262 37.3577 16.9694 37.3577 17.4618V21.6965H35.3881L35.4209 12.8332ZM49.6679 21.7458H47.7311V20.4983H47.6983C47.4521 20.9579 47.091 21.3026 46.615 21.5816C46.139 21.8607 45.6466 21.992 45.1542 21.992C43.9888 21.992 43.1353 21.7129 42.6101 21.122C42.0848 20.5476 41.8222 19.6612 41.8222 18.4959V12.8332H43.7918V18.2989C43.7918 19.0868 43.9396 19.6448 44.2514 19.9567C44.5469 20.2849 44.9736 20.4491 45.5153 20.4491C45.9256 20.4491 46.2703 20.3834 46.5493 20.2521C46.8284 20.1208 47.0581 19.9567 47.2223 19.7433C47.4028 19.5299 47.5177 19.2673 47.5998 18.9719C47.6819 18.6764 47.7147 18.3481 47.7147 18.0035V12.8332H49.6843V21.7458H49.6679ZM53.0163 18.8898C53.0819 19.4643 53.2953 19.8582 53.6728 20.1044C54.0503 20.3342 54.5099 20.4491 55.0352 20.4491C55.2157 20.4491 55.4291 20.4327 55.6589 20.3998C55.8887 20.367 56.1185 20.3178 56.3154 20.2357C56.5288 20.1536 56.6929 20.0387 56.8242 19.8746C56.9556 19.7105 57.0212 19.5135 57.0048 19.2673C56.9884 19.0211 56.9063 18.8077 56.7258 18.6436C56.5452 18.4794 56.3318 18.3646 56.0692 18.2497C55.8066 18.1512 55.4947 18.0691 55.15 18.0035C54.8054 17.9378 54.4607 17.8557 54.0996 17.7737C53.7385 17.6916 53.3774 17.5931 53.0327 17.4782C52.688 17.3633 52.3926 17.2156 52.1135 17.0022C51.8509 16.8053 51.6211 16.5591 51.4734 16.2472C51.3093 15.9353 51.2272 15.5742 51.2272 15.1147C51.2272 14.6222 51.3421 14.2283 51.5883 13.9C51.8181 13.5718 52.1299 13.3092 52.491 13.1122C52.8521 12.9152 53.2625 12.7675 53.7057 12.6854C54.1488 12.6034 54.5756 12.5705 54.9695 12.5705C55.4291 12.5705 55.8722 12.6198 56.2826 12.7183C56.6929 12.8168 57.0869 12.9645 57.4151 13.1943C57.7598 13.4076 58.0388 13.7031 58.2522 14.0478C58.482 14.3925 58.6133 14.8192 58.679 15.3116H56.6273C56.5288 14.8356 56.3154 14.5238 55.9871 14.3596C55.6425 14.1955 55.2649 14.1134 54.8218 14.1134C54.6905 14.1134 54.5099 14.1298 54.3294 14.1463C54.1324 14.1791 53.9683 14.2119 53.7877 14.2776C53.6236 14.3432 53.4759 14.4417 53.361 14.5566C53.2461 14.6715 53.1804 14.8356 53.1804 15.0326C53.1804 15.2788 53.2625 15.4593 53.4266 15.6071C53.5908 15.7548 53.8041 15.8697 54.0832 15.9846C54.3458 16.0831 54.6576 16.1651 55.0023 16.2308C55.347 16.2964 55.7081 16.3785 56.0692 16.4606C56.4303 16.5426 56.775 16.6411 57.1197 16.756C57.4644 16.8709 57.7762 17.0186 58.0388 17.232C58.3015 17.429 58.5313 17.6752 58.6954 17.9706C58.8595 18.2661 58.9416 18.6436 58.9416 19.0703C58.9416 19.5956 58.8267 20.0387 58.5805 20.4163C58.3343 20.7774 58.0224 21.0892 57.6449 21.319C57.2674 21.5488 56.8242 21.7129 56.3647 21.8278C55.8887 21.9263 55.4291 21.992 54.9695 21.992C54.4114 21.992 53.8862 21.9263 53.4102 21.795C52.9342 21.6637 52.5075 21.4667 52.1628 21.2205C51.8181 20.9579 51.5391 20.646 51.3421 20.2521C51.1451 19.8746 51.0302 19.415 51.0138 18.8734H52.9999V18.8898H53.0163ZM59.4997 12.8332H60.9933V10.1413H62.9629V12.8167H64.7356V14.2776H62.9629V19.0375C62.9629 19.2509 62.9793 19.415 62.9958 19.5792C63.0122 19.7269 63.0614 19.8582 63.1107 19.9567C63.1763 20.0552 63.2748 20.1372 63.3897 20.1865C63.521 20.2357 63.6851 20.2685 63.9149 20.2685C64.0462 20.2685 64.194 20.2685 64.3253 20.2521C64.4566 20.2357 64.6043 20.2193 64.7356 20.1865V21.7129C64.5222 21.7458 64.3088 21.7622 64.0955 21.7786C63.8821 21.8114 63.6851 21.8114 63.4553 21.8114C62.9301 21.8114 62.5198 21.7622 62.2079 21.6637C61.896 21.5652 61.6498 21.4175 61.4693 21.2369C61.2887 21.04 61.1738 20.8102 61.1082 20.5311C61.0425 20.2521 61.0097 19.9074 60.9933 19.5463V14.294H59.4997V12.8003V12.8332ZM66.1143 12.8332H67.9691V14.0478H68.0019C68.2809 13.5225 68.6585 13.1614 69.1509 12.9316C69.6433 12.7019 70.1685 12.587 70.7594 12.587C71.4652 12.587 72.0725 12.7019 72.5977 12.9645C73.123 13.2107 73.5497 13.5389 73.8944 13.9821C74.2391 14.4089 74.5017 14.9177 74.6658 15.4922C74.83 16.0666 74.9285 16.6904 74.9285 17.3305C74.9285 17.9378 74.8464 18.5123 74.6987 19.0703C74.5345 19.6284 74.3047 20.1372 73.9929 20.564C73.681 20.9907 73.2871 21.3354 72.7947 21.598C72.3023 21.8606 71.7442 21.992 71.0877 21.992C70.8086 21.992 70.5132 21.9591 70.2342 21.9099C69.9551 21.8607 69.6761 21.7786 69.4135 21.6637C69.1509 21.5488 68.9047 21.4011 68.6913 21.2205C68.4615 21.04 68.2809 20.8266 68.1332 20.5968H68.1004V25.0449H66.1308V12.8332H66.1143ZM72.9917 17.2977C72.9917 16.9037 72.9424 16.5098 72.8275 16.1323C72.729 15.7548 72.5649 15.4265 72.3515 15.1311C72.1381 14.8356 71.8755 14.6058 71.5801 14.4253C71.2682 14.2447 70.9071 14.1627 70.5132 14.1627C69.6925 14.1627 69.0688 14.4417 68.642 15.0162C68.2317 15.5907 68.0183 16.3621 68.0183 17.3141C68.0183 17.7737 68.0676 18.184 68.1825 18.5615C68.2974 18.939 68.4451 19.2673 68.6749 19.5463C68.8882 19.8254 69.1509 20.0387 69.4627 20.2029C69.7746 20.367 70.1193 20.4491 70.5296 20.4491C70.9892 20.4491 71.3503 20.3506 71.6621 20.17C71.974 19.9895 72.2202 19.7433 72.4336 19.4643C72.6306 19.1688 72.7783 18.8405 72.8603 18.463C72.9424 18.0691 72.9917 17.6916 72.9917 17.2977ZM76.4549 9.43555H78.4246V11.2903H76.4549V9.43555ZM76.4549 12.8332H78.4246V21.7458H76.4549V12.8332ZM80.1808 9.43555H82.1504V21.7458H80.1808V9.43555ZM88.1578 21.992C87.452 21.992 86.8119 21.8771 86.2539 21.6309C85.6958 21.3847 85.2362 21.0728 84.8423 20.6625C84.4648 20.2521 84.1693 19.7433 83.9724 19.1688C83.7754 18.5943 83.6605 17.9542 83.6605 17.2813C83.6605 16.6083 83.759 15.9846 83.9724 15.4101C84.1693 14.8356 84.4648 14.3432 84.8423 13.9165C85.2198 13.5061 85.6958 13.1779 86.2539 12.9481C86.8119 12.7183 87.452 12.587 88.1578 12.587C88.8636 12.587 89.5037 12.7019 90.0618 12.9481C90.6199 13.1779 91.0795 13.5061 91.4734 13.9165C91.8509 14.3268 92.1463 14.8356 92.3433 15.4101C92.5403 15.9846 92.6552 16.6083 92.6552 17.2813C92.6552 17.9706 92.5567 18.5943 92.3433 19.1688C92.1299 19.7433 91.8509 20.2357 91.4734 20.6625C91.0959 21.0728 90.6199 21.4011 90.0618 21.6309C89.5037 21.8607 88.88 21.992 88.1578 21.992ZM88.1578 20.4327C88.5846 20.4327 88.9785 20.3342 89.2904 20.1536C89.6186 19.9731 89.8648 19.7269 90.0782 19.4314C90.2916 19.136 90.4393 18.7913 90.5378 18.4302C90.6363 18.0527 90.6855 17.6752 90.6855 17.2813C90.6855 16.9037 90.6363 16.5262 90.5378 16.1487C90.4393 15.7712 90.2916 15.4429 90.0782 15.1475C89.8648 14.852 89.6022 14.6222 89.2904 14.4417C88.9621 14.2611 88.5846 14.1627 88.1578 14.1627C87.7311 14.1627 87.3372 14.2611 87.0253 14.4417C86.697 14.6222 86.4508 14.8685 86.2374 15.1475C86.0241 15.4429 85.8763 15.7712 85.7779 16.1487C85.6794 16.5262 85.6301 16.9037 85.6301 17.2813C85.6301 17.6752 85.6794 18.0527 85.7779 18.4302C85.8763 18.8077 86.0241 19.136 86.2374 19.4314C86.4508 19.7269 86.7134 19.9731 87.0253 20.1536C87.3536 20.3506 87.7311 20.4327 88.1578 20.4327ZM93.246 12.8332H94.7397V10.1413H96.7093V12.8167H98.482V14.2776H96.7093V19.0375C96.7093 19.2509 96.7257 19.415 96.7422 19.5792C96.7586 19.7269 96.8078 19.8582 96.857 19.9567C96.9227 20.0552 97.0212 20.1372 97.1361 20.1865C97.2674 20.2357 97.4315 20.2685 97.6613 20.2685C97.7926 20.2685 97.9403 20.2685 98.0717 20.2521C98.203 20.2357 98.3507 20.2193 98.482 20.1865V21.7129C98.2686 21.7458 98.0552 21.7622 97.8419 21.7786C97.6285 21.8114 97.4315 21.8114 97.2017 21.8114C96.6765 21.8114 96.2662 21.7622 95.9543 21.6637C95.6424 21.5652 95.3962 21.4175 95.2157 21.2369C95.0351 21.04 94.9202 20.8102 94.8546 20.5311C94.7889 20.2521 94.7561 19.9074 94.7397 19.5463V14.294H93.246V12.8003V12.8332Z" fill="black"/>
<path d="M26.0154 9H35.9785V10.8547H32.0556V21.3102H29.9055V10.8547H25.999L26.0154 9ZM35.5517 12.3976H37.3901V14.121H37.4229C37.4886 13.8748 37.6034 13.6451 37.7676 13.4153C37.9317 13.1855 38.1287 12.9721 38.3749 12.7915C38.6047 12.5946 38.8673 12.4469 39.1627 12.332C39.4418 12.2171 39.7372 12.1514 40.0327 12.1514C40.2625 12.1514 40.4266 12.1678 40.5087 12.1678C40.5907 12.1842 40.6892 12.2007 40.7713 12.2007V14.0882C40.64 14.0554 40.4922 14.039 40.3445 14.0226C40.1968 14.0061 40.0655 13.9897 39.9178 13.9897C39.5895 13.9897 39.2776 14.0554 38.9822 14.1867C38.6867 14.318 38.4405 14.515 38.2108 14.7612C37.9974 15.0238 37.8168 15.3357 37.6855 15.7132C37.5542 16.0907 37.4886 16.5338 37.4886 17.0263V21.261H35.5189L35.5517 12.3976ZM49.7988 21.3102H47.862V20.0628H47.8291C47.5829 20.5224 47.2218 20.867 46.7458 21.1461C46.2698 21.4251 45.7774 21.5564 45.285 21.5564C44.1197 21.5564 43.2661 21.2774 42.7409 20.6865C42.2157 20.112 41.9531 19.2257 41.9531 18.0603V12.3976H43.9227V17.8634C43.9227 18.6512 44.0704 19.2093 44.3823 19.5211C44.6777 19.8494 45.1045 20.0135 45.6461 20.0135C46.0565 20.0135 46.4011 19.9479 46.6802 19.8166C46.9592 19.6853 47.189 19.5211 47.3531 19.3077C47.5337 19.0944 47.6486 18.8318 47.7306 18.5363C47.8127 18.2409 47.8455 17.9126 47.8455 17.5679V12.3976H49.8152V21.3102H49.7988ZM53.1471 18.4542C53.2128 19.0287 53.4262 19.4226 53.8037 19.6688C54.1812 19.8986 54.6408 20.0135 55.166 20.0135C55.3466 20.0135 55.5599 19.9971 55.7897 19.9643C56.0195 19.9315 56.2493 19.8822 56.4463 19.8002C56.6597 19.7181 56.8238 19.6032 56.9551 19.4391C57.0864 19.2749 57.1521 19.078 57.1356 18.8318C57.1192 18.5856 57.0372 18.3722 56.8566 18.208C56.6761 18.0439 56.4627 17.929 56.2001 17.8141C55.9375 17.7156 55.6256 17.6336 55.2809 17.5679C54.9362 17.5022 54.5915 17.4202 54.2304 17.3381C53.8693 17.256 53.5082 17.1576 53.1636 17.0427C52.8189 16.9278 52.5234 16.78 52.2444 16.5667C51.9818 16.3697 51.752 16.1235 51.6043 15.8117C51.4401 15.4998 51.3581 15.1387 51.3581 14.6791C51.3581 14.1867 51.473 13.7928 51.7192 13.4645C51.9489 13.1362 52.2608 12.8736 52.6219 12.6766C52.983 12.4797 53.3933 12.332 53.8365 12.2499C54.2797 12.1678 54.7064 12.135 55.1004 12.135C55.5599 12.135 56.0031 12.1842 56.4135 12.2827C56.8238 12.3812 57.2177 12.5289 57.546 12.7587C57.8907 12.9721 58.1697 13.2675 58.3831 13.6122C58.6129 13.9569 58.7442 14.3837 58.8098 14.8761H56.7581C56.6597 14.4001 56.4463 14.0882 56.118 13.9241C55.7733 13.7599 55.3958 13.6779 54.9526 13.6779C54.8213 13.6779 54.6408 13.6943 54.4602 13.7107C54.2633 13.7435 54.0991 13.7764 53.9186 13.842C53.7544 13.9077 53.6067 14.0061 53.4918 14.121C53.3769 14.2359 53.3113 14.4001 53.3113 14.597C53.3113 14.8432 53.3933 15.0238 53.5575 15.1715C53.7216 15.3192 53.935 15.4341 54.214 15.549C54.4766 15.6475 54.7885 15.7296 55.1332 15.7952C55.4779 15.8609 55.839 15.943 56.2001 16.025C56.5612 16.1071 56.9059 16.2056 57.2505 16.3205C57.5952 16.4354 57.9071 16.5831 58.1697 16.7965C58.4323 16.9934 58.6621 17.2396 58.8263 17.5351C58.9904 17.8305 59.0725 18.208 59.0725 18.6348C59.0725 19.16 58.9576 19.6032 58.7114 19.9807C58.4652 20.3418 58.1533 20.6537 57.7758 20.8835C57.3983 21.1132 56.9551 21.2774 56.4955 21.3923C56.0195 21.4908 55.5599 21.5564 55.1004 21.5564C54.5423 21.5564 54.0171 21.4908 53.5411 21.3594C53.0651 21.2281 52.6383 21.0312 52.2936 20.785C51.9489 20.5224 51.6699 20.2105 51.473 19.8166C51.276 19.4391 51.1611 18.9795 51.1447 18.4378H53.1307V18.4542H53.1471ZM59.6305 12.3976H61.1242V9.70578H63.0938V12.3812H64.8665V13.842H63.0938V18.602C63.0938 18.8153 63.1102 18.9795 63.1266 19.1436C63.143 19.2913 63.1923 19.4226 63.2415 19.5211C63.3072 19.6196 63.4057 19.7017 63.5205 19.7509C63.6519 19.8002 63.816 19.833 64.0458 19.833C64.1771 19.833 64.3248 19.833 64.4561 19.8166C64.5874 19.8002 64.7352 19.7837 64.8665 19.7509V21.2774C64.6531 21.3102 64.4397 21.3266 64.2263 21.343C64.013 21.3759 63.816 21.3759 63.5862 21.3759C63.061 21.3759 62.6506 21.3266 62.3388 21.2281C62.0269 21.1297 61.7807 20.9819 61.6002 20.8014C61.4196 20.6044 61.3047 20.3746 61.2391 20.0956C61.1734 19.8166 61.1406 19.4719 61.1242 19.1108V13.8584H59.6305V12.3648V12.3976ZM66.2452 12.3976H68.0999V13.6122H68.1328C68.4118 13.087 68.7893 12.7259 69.2817 12.4961C69.7741 12.2663 70.2994 12.1514 70.8903 12.1514C71.596 12.1514 72.2033 12.2663 72.7286 12.5289C73.2538 12.7751 73.6806 13.1034 74.0253 13.5466C74.3699 13.9733 74.6326 14.4821 74.7967 15.0566C74.9608 15.6311 75.0593 16.2548 75.0593 16.8949C75.0593 17.5022 74.9772 18.0767 74.8295 18.6348C74.6654 19.1929 74.4356 19.7017 74.1237 20.1284C73.8119 20.5552 73.418 20.8999 72.9255 21.1625C72.4331 21.4251 71.8751 21.5564 71.2185 21.5564C70.9395 21.5564 70.6441 21.5236 70.365 21.4743C70.086 21.4251 69.807 21.343 69.5443 21.2281C69.2817 21.1132 69.0355 20.9655 68.8221 20.785C68.5924 20.6044 68.4118 20.391 68.2641 20.1613H68.2313V24.6093H66.2616V12.3976H66.2452ZM73.1225 16.8621C73.1225 16.4682 73.0733 16.0743 72.9584 15.6968C72.8599 15.3192 72.6958 14.991 72.4824 14.6955C72.269 14.4001 72.0064 14.1703 71.7109 13.9897C71.3991 13.8092 71.038 13.7271 70.6441 13.7271C69.8234 13.7271 69.1997 14.0062 68.7729 14.5806C68.3626 15.1551 68.1492 15.9265 68.1492 16.8785C68.1492 17.3381 68.1984 17.7485 68.3133 18.126C68.4282 18.5035 68.5759 18.8318 68.8057 19.1108C69.0191 19.3898 69.2817 19.6032 69.5936 19.7673C69.9054 19.9315 70.2501 20.0135 70.6605 20.0135C71.1201 20.0135 71.4811 19.9151 71.793 19.7345C72.1049 19.554 72.3511 19.3077 72.5644 19.0287C72.7614 18.7333 72.9091 18.405 72.9912 18.0275C73.0733 17.6336 73.1225 17.256 73.1225 16.8621ZM76.5858 9H78.5554V10.8547H76.5858V9ZM76.5858 12.3976H78.5554V21.3102H76.5858V12.3976ZM80.3117 9H82.2813V21.3102H80.3117V9ZM88.2887 21.5564C87.5829 21.5564 86.9428 21.4415 86.3847 21.1953C85.8266 20.9491 85.3671 20.6373 84.9731 20.2269C84.5956 19.8166 84.3002 19.3077 84.1032 18.7333C83.9063 18.1588 83.7914 17.5187 83.7914 16.8457C83.7914 16.1727 83.8898 15.549 84.1032 14.9746C84.3002 14.4001 84.5956 13.9077 84.9731 13.4809C85.3507 13.0706 85.8266 12.7423 86.3847 12.5125C86.9428 12.2827 87.5829 12.1514 88.2887 12.1514C88.9945 12.1514 89.6346 12.2663 90.1927 12.5125C90.7507 12.7423 91.2103 13.0706 91.6042 13.4809C91.9818 13.8913 92.2772 14.4001 92.4742 14.9746C92.6711 15.549 92.786 16.1727 92.786 16.8457C92.786 17.5351 92.6875 18.1588 92.4742 18.7333C92.2608 19.3077 91.9818 19.8002 91.6042 20.2269C91.2267 20.6373 90.7507 20.9655 90.1927 21.1953C89.6346 21.4251 89.0109 21.5564 88.2887 21.5564ZM88.2887 19.9971C88.7154 19.9971 89.1094 19.8986 89.4212 19.7181C89.7495 19.5375 89.9957 19.2913 90.2091 18.9959C90.4225 18.7004 90.5702 18.3558 90.6687 17.9947C90.7671 17.6171 90.8164 17.2396 90.8164 16.8457C90.8164 16.4682 90.7671 16.0907 90.6687 15.7132C90.5702 15.3357 90.4225 15.0074 90.2091 14.7119C89.9957 14.4165 89.7331 14.1867 89.4212 14.0062C89.093 13.8256 88.7154 13.7271 88.2887 13.7271C87.8619 13.7271 87.468 13.8256 87.1562 14.0062C86.8279 14.1867 86.5817 14.4329 86.3683 14.7119C86.1549 15.0074 86.0072 15.3357 85.9087 15.7132C85.8102 16.0907 85.761 16.4682 85.761 16.8457C85.761 17.2396 85.8102 17.6171 85.9087 17.9947C86.0072 18.3722 86.1549 18.7004 86.3683 18.9959C86.5817 19.2913 86.8443 19.5375 87.1562 19.7181C87.4844 19.9151 87.8619 19.9971 88.2887 19.9971ZM93.3769 12.3976H94.8705V9.70578H96.8402V12.3812H98.6129V13.842H96.8402V18.602C96.8402 18.8153 96.8566 18.9795 96.873 19.1436C96.8894 19.2913 96.9387 19.4226 96.9879 19.5211C97.0536 19.6196 97.152 19.7017 97.2669 19.7509C97.3982 19.8002 97.5624 19.833 97.7922 19.833C97.9235 19.833 98.0712 19.833 98.2025 19.8166C98.3338 19.8002 98.4815 19.7837 98.6129 19.7509V21.2774C98.3995 21.3102 98.1861 21.3266 97.9727 21.343C97.7593 21.3759 97.5624 21.3759 97.3326 21.3759C96.8074 21.3759 96.397 21.3266 96.0852 21.2281C95.7733 21.1297 95.5271 20.9819 95.3465 20.8014C95.166 20.6044 95.0511 20.3746 94.9854 20.0956C94.9198 19.8166 94.887 19.4719 94.8705 19.1108V13.8584H93.3769V12.3648V12.3976Z" fill="black"/>
<path d="M23.5864 9.4351H14.5753L11.8014 0.867188L9.01107 9.4351L0 9.41868L7.28764 14.7203L4.49733 23.2882L11.785 17.9866L19.0726 23.2882L16.2987 14.7203L23.5864 9.4351Z" fill="#00B67A"/>
<path d="M16.9228 16.6575L16.2991 14.7207L11.8018 17.987L16.9228 16.6575Z" fill="#005128"/>
</svg>
