<svg viewBox="0 0 15.1738 14.4785" fill="none" xmlns="http://www.w3.org/2000/svg" xmlns:xlink="http://www.w3.org/1999/xlink">
	<desc>
			Created with Pixso.
	</desc>
	<defs/>
	<mask id="mask_4_7570" fill="white">
		<path id="Path 7" d="M0 1.67871C0 0.737305 0.737305 0 1.8418 0C2.94727 0 3.64355 0.737305 3.68457 1.67871C3.68457 2.62012 2.98828 3.35742 1.8418 3.35742L1.80176 3.35742C0.696289 3.35742 0 2.62012 0 1.67871ZM15.1738 8.875L15.1738 14.4785L11.9014 14.4785L11.9014 9.24316C11.9014 7.93359 11.4521 7.03418 10.2656 7.03418C9.36523 7.03418 8.83398 7.64746 8.58887 8.2207C8.50684 8.4248 8.46582 8.71094 8.46582 8.99707L8.46582 14.4785L5.19336 14.4785C5.19336 14.4785 5.23438 5.60254 5.19336 4.70215L8.46582 4.70215L8.46582 6.09277C8.46582 6.09277 8.46582 6.13379 8.4248 6.13379L8.46582 6.13379L8.46582 6.09277C8.91602 5.43848 9.65234 4.45703 11.4111 4.45703C13.5381 4.45703 15.1738 5.88867 15.1738 8.875ZM0.164062 14.4775L3.39551 14.4775L3.39551 4.70117L0.164062 4.70117L0.164062 14.4775Z" clip-rule="evenodd" fill="" fill-opacity="1.000000" fill-rule="evenodd"/>
	</mask>
	<path id="Path 7" d="M0 1.67871C0 0.737305 0.737305 0 1.8418 0C2.94727 0 3.64355 0.737305 3.68457 1.67871C3.68457 2.62012 2.98828 3.35742 1.8418 3.35742L1.80176 3.35742C0.696289 3.35742 0 2.62012 0 1.67871ZM15.1738 8.875L15.1738 14.4785L11.9014 14.4785L11.9014 9.24316C11.9014 7.93359 11.4521 7.03418 10.2656 7.03418C9.36523 7.03418 8.83398 7.64746 8.58887 8.2207C8.50684 8.4248 8.46582 8.71094 8.46582 8.99707L8.46582 14.4785L5.19336 14.4785C5.19336 14.4785 5.23438 5.60254 5.19336 4.70215L8.46582 4.70215L8.46582 6.09277C8.46582 6.09277 8.46582 6.13379 8.4248 6.13379L8.46582 6.13379L8.46582 6.09277C8.91602 5.43848 9.65234 4.45703 11.4111 4.45703C13.5381 4.45703 15.1738 5.88867 15.1738 8.875ZM0.164062 14.4775L3.39551 14.4775L3.39551 4.70117L0.164062 4.70117L0.164062 14.4775Z" clip-rule="evenodd" fill="#535353" fill-opacity="1.000000" fill-rule="evenodd" mask="url(#mask_4_7570)"/>
	<path id="Path 7" d="" fill="#707070" fill-opacity="0.000000" fill-rule="nonzero"/>
</svg>
