<svg  viewBox="0 0 15.1758 15.2305" fill="none" xmlns="http://www.w3.org/2000/svg" xmlns:xlink="http://www.w3.org/1999/xlink">
	<desc>
			Created with Pixso.
	</desc>
	<defs/>
	<mask id="mask_4_7563" fill="white">
		<path id="Path 8" d="M7.55273 0C8.56152 0.0361328 9.60742 0.0361328 10.6172 0.0722656C11.5186 0.108398 12.3477 0.251953 13.1406 0.720703C14.1504 1.33398 14.7637 2.23535 14.9795 3.38867C15.0879 4.07422 15.124 4.79492 15.1602 5.48047C15.1836 6.48926 15.1758 7.49902 15.168 8.50879L15.168 8.50879C15.1641 9.01367 15.1602 9.51855 15.1602 10.0234C15.1602 10.8164 15.124 11.6094 14.8711 12.3662C14.3662 13.8447 13.3213 14.7461 11.8066 15.0342C11.1221 15.1787 10.4004 15.1787 9.71582 15.2148C8.70703 15.2393 7.71484 15.2305 6.71777 15.2227L6.71777 15.2227C6.2168 15.2188 5.71484 15.2148 5.20898 15.2148C4.41602 15.2148 3.62207 15.1787 2.86523 14.9268C1.38672 14.4219 0.485352 13.376 0.197266 11.8623C0.0527344 11.1768 0.0527344 10.4561 0.0166016 9.77051C-0.00683594 8.76074 0.000976562 7.75195 0.00878906 6.74219C0.0126953 6.2373 0.0166016 5.73242 0.0166016 5.22754C0.0166016 4.43457 0.0527344 3.6416 0.305664 2.88477C0.810547 1.40625 1.85547 0.504883 3.37012 0.216797C4.05469 0.0722656 4.77637 0.0722656 5.46094 0.0361328C6.14648 0 6.83105 0 7.55273 0ZM13.7549 5.66016C13.7549 6.27344 13.7549 6.85059 13.791 7.46289C13.7549 8.65332 13.7549 9.80664 13.6826 10.8887C13.6465 11.7539 13.3945 12.5117 12.6729 13.0879C12.2402 13.4492 11.7354 13.6289 11.1953 13.665C10.6182 13.7373 10.041 13.7734 9.46387 13.7734C9.0293 13.7734 8.59766 13.7773 8.16895 13.7812C7.31934 13.7891 6.48047 13.7969 5.64258 13.7734C4.95703 13.7734 4.27246 13.7373 3.62305 13.6289C2.3252 13.4131 1.53223 12.5117 1.42383 11.2129C1.35156 10.3477 1.31543 9.44629 1.31543 8.58105C1.31543 7.21094 1.31543 5.84082 1.35156 4.4707C1.3877 4.11035 1.42383 3.75 1.53223 3.38867C1.85645 2.30762 2.61328 1.69434 3.69531 1.51367C4.30859 1.40625 4.95703 1.37012 5.60645 1.37012C6.9043 1.33398 8.16602 1.33398 9.46387 1.37012C10.1133 1.37012 10.834 1.37012 11.4834 1.51367C12.7451 1.7666 13.5029 2.63184 13.6465 3.92969C13.7188 4.50684 13.7549 5.08398 13.7549 5.66016Z" clip-rule="evenodd" fill="" fill-opacity="1.000000" fill-rule="evenodd"/>
	</mask>
	<path id="Path 8" d="M7.55273 0C8.56152 0.0361328 9.60742 0.0361328 10.6172 0.0722656C11.5186 0.108398 12.3477 0.251953 13.1406 0.720703C14.1504 1.33398 14.7637 2.23535 14.9795 3.38867C15.0879 4.07422 15.124 4.79492 15.1602 5.48047C15.1836 6.48926 15.1758 7.49902 15.168 8.50879L15.168 8.50879C15.1641 9.01367 15.1602 9.51855 15.1602 10.0234C15.1602 10.8164 15.124 11.6094 14.8711 12.3662C14.3662 13.8447 13.3213 14.7461 11.8066 15.0342C11.1221 15.1787 10.4004 15.1787 9.71582 15.2148C8.70703 15.2393 7.71484 15.2305 6.71777 15.2227L6.71777 15.2227C6.2168 15.2188 5.71484 15.2148 5.20898 15.2148C4.41602 15.2148 3.62207 15.1787 2.86523 14.9268C1.38672 14.4219 0.485352 13.376 0.197266 11.8623C0.0527344 11.1768 0.0527344 10.4561 0.0166016 9.77051C-0.00683594 8.76074 0.000976562 7.75195 0.00878906 6.74219C0.0126953 6.2373 0.0166016 5.73242 0.0166016 5.22754C0.0166016 4.43457 0.0527344 3.6416 0.305664 2.88477C0.810547 1.40625 1.85547 0.504883 3.37012 0.216797C4.05469 0.0722656 4.77637 0.0722656 5.46094 0.0361328C6.14648 0 6.83105 0 7.55273 0ZM13.7549 5.66016C13.7549 6.27344 13.7549 6.85059 13.791 7.46289C13.7549 8.65332 13.7549 9.80664 13.6826 10.8887C13.6465 11.7539 13.3945 12.5117 12.6729 13.0879C12.2402 13.4492 11.7354 13.6289 11.1953 13.665C10.6182 13.7373 10.041 13.7734 9.46387 13.7734C9.0293 13.7734 8.59766 13.7773 8.16895 13.7812C7.31934 13.7891 6.48047 13.7969 5.64258 13.7734C4.95703 13.7734 4.27246 13.7373 3.62305 13.6289C2.3252 13.4131 1.53223 12.5117 1.42383 11.2129C1.35156 10.3477 1.31543 9.44629 1.31543 8.58105C1.31543 7.21094 1.31543 5.84082 1.35156 4.4707C1.3877 4.11035 1.42383 3.75 1.53223 3.38867C1.85645 2.30762 2.61328 1.69434 3.69531 1.51367C4.30859 1.40625 4.95703 1.37012 5.60645 1.37012C6.9043 1.33398 8.16602 1.33398 9.46387 1.37012C10.1133 1.37012 10.834 1.37012 11.4834 1.51367C12.7451 1.7666 13.5029 2.63184 13.6465 3.92969C13.7188 4.50684 13.7549 5.08398 13.7549 5.66016Z" clip-rule="evenodd" fill="#535353" fill-opacity="1.000000" fill-rule="evenodd" mask="url(#mask_4_7563)"/>
	<path id="Path 8" d="" fill="#707070" fill-opacity="0.000000" fill-rule="nonzero"/>
	<mask id="mask_4_7566" fill="white">
		<path id="Path 9" d="M7.55664 11.501C9.72168 11.501 11.4531 9.76953 11.4531 7.60449C11.4531 5.43945 9.72168 3.70703 7.59277 3.70703C5.42773 3.70703 3.65918 5.43945 3.65918 7.56836C3.65918 9.76953 5.3916 11.501 7.55664 11.501ZM10.084 7.60449C10.084 8.97559 8.92871 10.1309 7.55762 10.1309C6.15039 10.1309 4.99512 8.97559 5.03125 7.60449C5.03125 6.2334 6.15039 5.07812 7.55762 5.07812C8.92871 5.07812 10.084 6.2334 10.084 7.60449Z" clip-rule="evenodd" fill="" fill-opacity="1.000000" fill-rule="evenodd"/>
	</mask>
	<path id="Path 9" d="M7.55664 11.501C9.72168 11.501 11.4531 9.76953 11.4531 7.60449C11.4531 5.43945 9.72168 3.70703 7.59277 3.70703C5.42773 3.70703 3.65918 5.43945 3.65918 7.56836C3.65918 9.76953 5.3916 11.501 7.55664 11.501ZM10.084 7.60449C10.084 8.97559 8.92871 10.1309 7.55762 10.1309C6.15039 10.1309 4.99512 8.97559 5.03125 7.60449C5.03125 6.2334 6.15039 5.07812 7.55762 5.07812C8.92871 5.07812 10.084 6.2334 10.084 7.60449Z" clip-rule="evenodd" fill="#535353" fill-opacity="1.000000" fill-rule="evenodd" mask="url(#mask_4_7566)"/>
	<path id="Path 9" d="" fill="#707070" fill-opacity="0.000000" fill-rule="nonzero"/>
	<path id="Path 10" d="M12.49 3.53C12.49 4.03 12.1 4.46 11.59 4.46C11.08 4.46 10.65 4.03 10.69 3.53C10.69 3.02 11.08 2.62 11.59 2.62C12.1 2.62 12.49 3.02 12.49 3.53Z" fill="#535353" fill-opacity="1.000000" fill-rule="nonzero"/>
	<path id="Path 10" d="M11.59 4.46C11.08 4.46 10.65 4.03 10.69 3.53C10.69 3.02 11.08 2.62 11.59 2.62C12.1 2.62 12.49 3.02 12.49 3.53C12.49 4.03 12.1 4.46 11.59 4.46Z" stroke="#707070" stroke-opacity="0" stroke-width="0.000000"/>
</svg>
