<svg width="15.884766" height="3.529785" viewBox="0 0 15.8848 3.52979" fill="none" xmlns="http://www.w3.org/2000/svg" xmlns:xlink="http://www.w3.org/1999/xlink">
	<desc>
			Created with Pixso.
	</desc>
	<defs/>
	<path id="Vector" d="M7.05 1.76C7.05 1.27 7.45 0.88 7.94 0.88C8.42 0.88 8.82 1.27 8.82 1.76C8.82 2.25 8.42 2.64 7.94 2.64C7.45 2.64 7.05 2.25 7.05 1.76Z" stroke="#CBD5E0" stroke-opacity="1.000000" stroke-width="1.764912" stroke-linejoin="round"/>
	<path id="Vector" d="M0.88 1.76C0.88 1.27 1.27 0.88 1.76 0.88C2.25 0.88 2.64 1.27 2.64 1.76C2.64 2.25 2.25 2.64 1.76 2.64C1.27 2.64 0.88 2.25 0.88 1.76Z" stroke="#CBD5E0" stroke-opacity="1.000000" stroke-width="1.764912" stroke-linejoin="round"/>
	<path id="Vector" d="M13.23 1.76C13.23 1.27 13.63 0.88 14.11 0.88C14.6 0.88 15 1.27 15 1.76C15 2.25 14.6 2.64 14.11 2.64C13.63 2.64 13.23 2.25 13.23 1.76Z" stroke="#CBD5E0" stroke-opacity="1.000000" stroke-width="1.764912" stroke-linejoin="round"/>
</svg>
