<svg width="38.577148" height="38.577148" viewBox="0 0 38.5771 38.5771" fill="none" xmlns="http://www.w3.org/2000/svg" xmlns:xlink="http://www.w3.org/1999/xlink">
	<desc>
			Created with Pixso.
	</desc>
	<defs>
		<clipPath id="clip1_5281">
			<rect id="bx:link-alt" rx="-0.602767" width="37.371544" height="37.371544" transform="translate(0.602767 0.602767)" fill="white" fill-opacity="0"/>
		</clipPath>
	</defs>
	<rect id="bx:link-alt" rx="-0.602767" width="37.371544" height="37.371544" transform="translate(0.602767 0.602767)" fill="#FFFFFF" fill-opacity="0"/>
	<g clip-path="url(#clip1_5281)">
		<path id="Vector" d="M6.78 31.79C7.53 32.53 8.41 33.12 9.39 33.53C10.36 33.93 11.41 34.14 12.46 34.14C13.52 34.14 14.56 33.93 15.54 33.53C16.51 33.12 17.4 32.53 18.15 31.79L22.69 27.24L20.42 24.97L15.87 29.51C14.97 30.41 13.74 30.92 12.46 30.92C11.19 30.92 9.96 30.41 9.05 29.51C8.15 28.61 7.64 27.38 7.64 26.1C7.64 24.82 8.15 23.6 9.05 22.69L13.6 18.15L11.33 15.87L6.78 20.42C5.28 21.93 4.43 23.97 4.43 26.1C4.43 28.23 5.28 30.28 6.78 31.79ZM31.79 18.15C33.29 16.64 34.13 14.59 34.13 12.46C34.13 10.33 33.29 8.29 31.79 6.78C30.28 5.28 28.23 4.43 26.1 4.43C23.97 4.43 21.93 5.28 20.42 6.78L15.87 11.33L18.15 13.6L22.69 9.05C23.6 8.15 24.82 7.65 26.1 7.65C27.38 7.65 28.61 8.15 29.51 9.05C30.41 9.96 30.92 11.19 30.92 12.46C30.92 13.74 30.41 14.97 29.51 15.87L24.96 20.42L27.24 22.69L31.79 18.15Z" fill="#888888" fill-opacity="1.000000" fill-rule="nonzero"/>
		<path id="Vector" d="M13.6 27.24L11.33 24.97L24.97 11.33L27.24 13.6L13.6 27.24Z" fill="#888888" fill-opacity="1.000000" fill-rule="nonzero"/>
	</g>
</svg>
