<svg width="130.968750" height="135.275635" viewBox="0 0 130.969 135.276" fill="none" xmlns="http://www.w3.org/2000/svg" xmlns:xlink="http://www.w3.org/1999/xlink">
	<desc>
			Created with Pixso.
	</desc>
	<defs/>
	<path id="Vector" d="M108.77 103.34C108.78 103.53 131.84 92.01 118.21 68.86C106.69 49.32 83.28 44.64 66.65 54.7C59.52 59.01 50.76 73.95 61.88 79.87C71.87 85.18 84.57 78.65 90.54 69.33C103.14 49.63 91.37 33.7 72.68 28.62C51.97 23.01 32.43 30.72 15.65 43.29" stroke="#000000" stroke-opacity="1.000000" stroke-width="3.378840" stroke-linejoin="round" stroke-linecap="round"/>
	<path id="Vector" d="M34.53 48.33C27.79 42.61 17.13 44.03 9.71 47.29C15.35 42.03 18.5 33.7 19.28 25.67C19.52 23.23 19.87 20.8 19.26 18.38" stroke="#000000" stroke-opacity="1.000000" stroke-width="3.378840" stroke-linejoin="round" stroke-linecap="round"/>
</svg>
