<svg  viewBox="0 0 15.1748 12.3545" fill="none" xmlns="http://www.w3.org/2000/svg" xmlns:xlink="http://www.w3.org/1999/xlink">
	<desc>
			Created with Pixso.
	</desc>
	<defs/>
	<mask id="mask_4_7575" fill="#707070">
		<path id="Path 6" d="M15.1748 1.46387C14.6035 1.71387 14.0322 1.89258 13.3896 1.96387C14.0322 1.57129 14.5322 0.963867 14.7461 0.25C14.1396 0.607422 13.4609 0.856445 12.7822 1C12.2109 0.392578 11.3896 0 10.4971 0C8.7832 0 7.39062 1.39258 7.39062 3.10645C7.39062 3.35645 7.42676 3.60645 7.46289 3.82031C4.85645 3.67773 2.57129 2.46387 1.03516 0.571289C0.75 1.03516 0.607422 1.57129 0.607422 2.14258C0.607422 3.21387 1.14258 4.17773 2 4.74902C1.5 4.74902 1 4.60645 0.571289 4.35645L0.571289 4.3916C0.571289 5.8916 1.64258 7.17676 3.07031 7.46289C2.82031 7.53418 2.53516 7.56934 2.24902 7.56934C2.03516 7.56934 1.85645 7.53418 1.67773 7.49805C2.07129 8.74805 3.21387 9.64062 4.60645 9.67578C3.53516 10.4971 2.21387 10.9971 0.75 10.9971C0.5 10.9971 0.25 10.9971 0 10.9619C1.39258 11.8545 2.99902 12.3545 4.78418 12.3545C10.5332 12.3545 13.6396 7.60547 13.6396 3.49902L13.6396 3.10645C14.2461 2.64258 14.7822 2.07129 15.1748 1.46387Z" clip-rule="evenodd" fill="" fill-opacity="1.000000" fill-rule="evenodd"/>
	</mask>
	<path id="Path 6" d="M15.1748 1.46387C14.6035 1.71387 14.0322 1.89258 13.3896 1.96387C14.0322 1.57129 14.5322 0.963867 14.7461 0.25C14.1396 0.607422 13.4609 0.856445 12.7822 1C12.2109 0.392578 11.3896 0 10.4971 0C8.7832 0 7.39062 1.39258 7.39062 3.10645C7.39062 3.35645 7.42676 3.60645 7.46289 3.82031C4.85645 3.67773 2.57129 2.46387 1.03516 0.571289C0.75 1.03516 0.607422 1.57129 0.607422 2.14258C0.607422 3.21387 1.14258 4.17773 2 4.74902C1.5 4.74902 1 4.60645 0.571289 4.35645L0.571289 4.3916C0.571289 5.8916 1.64258 7.17676 3.07031 7.46289C2.82031 7.53418 2.53516 7.56934 2.24902 7.56934C2.03516 7.56934 1.85645 7.53418 1.67773 7.49805C2.07129 8.74805 3.21387 9.64062 4.60645 9.67578C3.53516 10.4971 2.21387 10.9971 0.75 10.9971C0.5 10.9971 0.25 10.9971 0 10.9619C1.39258 11.8545 2.99902 12.3545 4.78418 12.3545C10.5332 12.3545 13.6396 7.60547 13.6396 3.49902L13.6396 3.10645C14.2461 2.64258 14.7822 2.07129 15.1748 1.46387Z" clip-rule="evenodd" fill="#FFFFFF" fill-opacity="1.000000" fill-rule="evenodd" mask="url(#mask_4_7575)"/>
	<path id="Path 6" d="" fill="#707070" fill-opacity="0.000000" fill-rule="nonzero"/>
</svg>
