<svg width="44" height="44" viewBox="0 0 44 44" fill="none" xmlns="http://www.w3.org/2000/svg">
<path d="M38.4914 29.6325C36.8975 29.6325 36.191 29.0166 35.1948 28.1472C34.0899 27.2053 32.7133 26.0098 30.123 26.0098C27.5147 26.0098 26.1562 27.2053 25.0512 28.1472C24.055 29.0166 23.3305 29.6325 21.7365 29.6325C20.1606 29.6325 19.4361 29.0166 18.4398 28.1472C17.3349 27.2053 15.9583 26.0098 13.3681 26.0098C10.7598 26.0098 9.38314 27.2053 8.27822 28.1472C7.28198 29.0166 6.57554 29.6325 4.98156 29.6325C4.2389 29.6325 3.62305 30.2483 3.62305 30.991C3.62305 31.7517 4.2389 32.3495 4.98156 32.3495C7.58989 32.3495 8.94838 31.1721 10.0533 30.2121C11.0495 29.3426 11.7741 28.7268 13.3681 28.7268C14.9621 28.7268 15.6685 29.3426 16.6648 30.2121C17.7697 31.1721 19.1463 32.3495 21.7365 32.3495C24.3448 32.3495 25.7215 31.1721 26.8264 30.2121C27.8226 29.3426 28.5291 28.7268 30.123 28.7268C31.6989 28.7268 32.4235 29.3426 33.4197 30.2121C34.5246 31.1721 35.9012 32.3495 38.4914 32.3495C39.2341 32.3495 39.85 31.7517 39.85 30.991C39.85 30.2483 39.2341 29.6325 38.4914 29.6325Z" fill="white"/>
<path d="M38.4914 22.1715C36.8975 22.1715 36.191 21.5375 35.1948 20.6862C34.0899 19.7262 32.7133 18.5488 30.123 18.5488C27.5147 18.5488 26.1562 19.7262 25.0512 20.6862C24.055 21.5375 23.3305 22.1715 21.7365 22.1715C20.1606 22.1715 19.4361 21.5375 18.4398 20.6862C17.3349 19.7262 15.9583 18.5488 13.3681 18.5488C10.7598 18.5488 9.38314 19.7262 8.27822 20.6862C7.28198 21.5375 6.57554 22.1715 4.98156 22.1715C4.2389 22.1715 3.62305 22.7693 3.62305 23.53C3.62305 24.2727 4.2389 24.8885 4.98156 24.8885C7.58989 24.8885 8.94838 23.693 10.0533 22.733C11.0495 21.8817 11.7741 21.2658 13.3681 21.2658C14.9621 21.2658 15.6685 21.8817 16.6648 22.733C17.7697 23.693 19.1463 24.8885 21.7365 24.8885C24.3448 24.8885 25.7215 23.693 26.8264 22.733C27.8226 21.8817 28.5291 21.2658 30.123 21.2658C31.6989 21.2658 32.4235 21.8817 33.4197 22.733C34.5246 23.693 35.9012 24.8885 38.4914 24.8885C39.2341 24.8885 39.85 24.2727 39.85 23.53C39.85 22.7693 39.2341 22.1715 38.4914 22.1715Z" fill="white"/>
<path d="M4.98156 17.4608C7.58989 17.4608 8.94838 16.2653 10.0533 15.3234C11.0495 14.454 11.7741 13.8381 13.3681 13.8381C14.9621 13.8381 15.6685 14.454 16.6648 15.3234C17.7697 16.2653 19.1463 17.4608 21.7365 17.4608C24.3448 17.4608 25.7215 16.2653 26.8264 15.3234C27.8226 14.454 28.5291 13.8381 30.123 13.8381C31.6989 13.8381 32.4235 14.454 33.4197 15.3234C34.5246 16.2653 35.9012 17.4608 38.4914 17.4608C39.2341 17.4608 39.8499 16.8449 39.8499 16.1023C39.8499 15.3415 39.2341 14.7438 38.4914 14.7438C36.8975 14.7438 36.191 14.1279 35.1948 13.2585C34.0899 12.2985 32.7133 11.1211 30.123 11.1211C27.5147 11.1211 26.1562 12.2985 25.0512 13.2585C24.055 14.1279 23.3305 14.7438 21.7365 14.7438C20.1606 14.7438 19.4361 14.1279 18.4398 13.2585C17.3349 12.2985 15.9583 11.1211 13.3681 11.1211C10.7598 11.1211 9.38314 12.2985 8.27822 13.2585C7.28198 14.1279 6.57554 14.7438 4.98156 14.7438C4.2389 14.7438 3.62305 15.3415 3.62305 16.1023C3.62305 16.8449 4.2389 17.4608 4.98156 17.4608Z" fill="white"/>
</svg>
