<svg width="192.223633" height="173.000122" viewBox="0 0 192.224 173" fill="none" xmlns="http://www.w3.org/2000/svg" xmlns:xlink="http://www.w3.org/1999/xlink">
	<desc>
			Created with Pixso.
	</desc>
	<defs/>
	<g opacity="0.700000" style="mix-blend-mode:normal">
		<rect id="Rectangle 3" y="173.000122" width="2.836072" height="2.840729" transform="rotate(-90 0.000000 173.000122)" fill="#C5C5C5" fill-opacity="1.000000"/>
		<rect id="Rectangle 3" y="173.000122" width="2.836072" height="2.840729" transform="rotate(-90 0.000000 173.000122)" stroke="#979797" stroke-opacity="0" stroke-width="0.000000"/>
		<rect id="Rectangle 3 Copy" y="154.093872" width="2.836072" height="2.840729" transform="rotate(-90 0.000000 154.093872)" fill="#C5C5C5" fill-opacity="1.000000"/>
		<rect id="Rectangle 3 Copy" y="154.093872" width="2.836072" height="2.840729" transform="rotate(-90 0.000000 154.093872)" stroke="#979797" stroke-opacity="0" stroke-width="0.000000"/>
		<rect id="Rectangle 3 Copy 2" y="135.185669" width="2.836072" height="2.840729" transform="rotate(-90 0.000000 135.185669)" fill="#C5C5C5" fill-opacity="1.000000"/>
		<rect id="Rectangle 3 Copy 2" y="135.185669" width="2.836072" height="2.840729" transform="rotate(-90 0.000000 135.185669)" stroke="#979797" stroke-opacity="0" stroke-width="0.000000"/>
		<rect id="Rectangle 3 Copy 3" y="116.278442" width="2.836072" height="2.840729" transform="rotate(-90 0.000000 116.278442)" fill="#C5C5C5" fill-opacity="1.000000"/>
		<rect id="Rectangle 3 Copy 3" y="116.278442" width="2.836072" height="2.840729" transform="rotate(-90 0.000000 116.278442)" stroke="#979797" stroke-opacity="0" stroke-width="0.000000"/>
		<rect id="Rectangle 3 Copy 4" y="97.371704" width="2.836072" height="2.840729" transform="rotate(-90 0.000000 97.371704)" fill="#C5C5C5" fill-opacity="1.000000"/>
		<rect id="Rectangle 3 Copy 4" y="97.371704" width="2.836072" height="2.840729" transform="rotate(-90 0.000000 97.371704)" stroke="#979797" stroke-opacity="0" stroke-width="0.000000"/>
		<rect id="Rectangle 3 Copy 5" y="78.463989" width="2.836072" height="2.840729" transform="rotate(-90 0.000000 78.463989)" fill="#C5C5C5" fill-opacity="1.000000"/>
		<rect id="Rectangle 3 Copy 5" y="78.463989" width="2.836072" height="2.840729" transform="rotate(-90 0.000000 78.463989)" stroke="#979797" stroke-opacity="0" stroke-width="0.000000"/>
		<rect id="Rectangle 3 Copy 6" y="59.556763" width="2.836072" height="2.840729" transform="rotate(-90 0.000000 59.556763)" fill="#C5C5C5" fill-opacity="1.000000"/>
		<rect id="Rectangle 3 Copy 6" y="59.556763" width="2.836072" height="2.840729" transform="rotate(-90 0.000000 59.556763)" stroke="#979797" stroke-opacity="0" stroke-width="0.000000"/>
		<rect id="Rectangle 3 Copy 7" y="40.649536" width="2.836072" height="2.840729" transform="rotate(-90 0.000000 40.649536)" fill="#C5C5C5" fill-opacity="1.000000"/>
		<rect id="Rectangle 3 Copy 7" y="40.649536" width="2.836072" height="2.840729" transform="rotate(-90 0.000000 40.649536)" stroke="#979797" stroke-opacity="0" stroke-width="0.000000"/>
		<rect id="Rectangle 3 Copy 8" y="21.742310" width="2.836072" height="2.840729" transform="rotate(-90 0.000000 21.742310)" fill="#C5C5C5" fill-opacity="1.000000"/>
		<rect id="Rectangle 3 Copy 8" y="21.742310" width="2.836072" height="2.840729" transform="rotate(-90 0.000000 21.742310)" stroke="#979797" stroke-opacity="0" stroke-width="0.000000"/>
		<rect id="Rectangle 3 Copy 9" y="2.836060" width="2.836072" height="2.840729" transform="rotate(-90 0.000000 2.836060)" fill="#C5C5C5" fill-opacity="1.000000"/>
		<rect id="Rectangle 3 Copy 9" y="2.836060" width="2.836072" height="2.840729" transform="rotate(-90 0.000000 2.836060)" stroke="#979797" stroke-opacity="0" stroke-width="0.000000"/>
		<rect id="Rectangle 3 Copy 19" x="18.937500" y="173.000122" width="2.836072" height="2.840729" transform="rotate(-90 18.937500 173.000122)" fill="#C5C5C5" fill-opacity="1.000000"/>
		<rect id="Rectangle 3 Copy 19" x="18.937500" y="173.000122" width="2.836072" height="2.840729" transform="rotate(-90 18.937500 173.000122)" stroke="#979797" stroke-opacity="0" stroke-width="0.000000"/>
		<rect id="Rectangle 3 Copy 18" x="18.937500" y="154.093872" width="2.836072" height="2.840729" transform="rotate(-90 18.937500 154.093872)" fill="#C5C5C5" fill-opacity="1.000000"/>
		<rect id="Rectangle 3 Copy 18" x="18.937500" y="154.093872" width="2.836072" height="2.840729" transform="rotate(-90 18.937500 154.093872)" stroke="#979797" stroke-opacity="0" stroke-width="0.000000"/>
		<rect id="Rectangle 3 Copy 17" x="18.937500" y="135.185669" width="2.836072" height="2.840729" transform="rotate(-90 18.937500 135.185669)" fill="#C5C5C5" fill-opacity="1.000000"/>
		<rect id="Rectangle 3 Copy 17" x="18.937500" y="135.185669" width="2.836072" height="2.840729" transform="rotate(-90 18.937500 135.185669)" stroke="#979797" stroke-opacity="0" stroke-width="0.000000"/>
		<rect id="Rectangle 3 Copy 16" x="18.937500" y="116.278442" width="2.836072" height="2.840729" transform="rotate(-90 18.937500 116.278442)" fill="#C5C5C5" fill-opacity="1.000000"/>
		<rect id="Rectangle 3 Copy 16" x="18.937500" y="116.278442" width="2.836072" height="2.840729" transform="rotate(-90 18.937500 116.278442)" stroke="#979797" stroke-opacity="0" stroke-width="0.000000"/>
		<rect id="Rectangle 3 Copy 15" x="18.937500" y="97.371704" width="2.836072" height="2.840729" transform="rotate(-90 18.937500 97.371704)" fill="#C5C5C5" fill-opacity="1.000000"/>
		<rect id="Rectangle 3 Copy 15" x="18.937500" y="97.371704" width="2.836072" height="2.840729" transform="rotate(-90 18.937500 97.371704)" stroke="#979797" stroke-opacity="0" stroke-width="0.000000"/>
		<rect id="Rectangle 3 Copy 14" x="18.937500" y="78.463989" width="2.836072" height="2.840729" transform="rotate(-90 18.937500 78.463989)" fill="#C5C5C5" fill-opacity="1.000000"/>
		<rect id="Rectangle 3 Copy 14" x="18.937500" y="78.463989" width="2.836072" height="2.840729" transform="rotate(-90 18.937500 78.463989)" stroke="#979797" stroke-opacity="0" stroke-width="0.000000"/>
		<rect id="Rectangle 3 Copy 13" x="18.937500" y="59.556763" width="2.836072" height="2.840729" transform="rotate(-90 18.937500 59.556763)" fill="#C5C5C5" fill-opacity="1.000000"/>
		<rect id="Rectangle 3 Copy 13" x="18.937500" y="59.556763" width="2.836072" height="2.840729" transform="rotate(-90 18.937500 59.556763)" stroke="#979797" stroke-opacity="0" stroke-width="0.000000"/>
		<rect id="Rectangle 3 Copy 12" x="18.937500" y="40.649536" width="2.836072" height="2.840729" transform="rotate(-90 18.937500 40.649536)" fill="#C5C5C5" fill-opacity="1.000000"/>
		<rect id="Rectangle 3 Copy 12" x="18.937500" y="40.649536" width="2.836072" height="2.840729" transform="rotate(-90 18.937500 40.649536)" stroke="#979797" stroke-opacity="0" stroke-width="0.000000"/>
		<rect id="Rectangle 3 Copy 11" x="18.937500" y="21.742310" width="2.836072" height="2.840729" transform="rotate(-90 18.937500 21.742310)" fill="#C5C5C5" fill-opacity="1.000000"/>
		<rect id="Rectangle 3 Copy 11" x="18.937500" y="21.742310" width="2.836072" height="2.840729" transform="rotate(-90 18.937500 21.742310)" stroke="#979797" stroke-opacity="0" stroke-width="0.000000"/>
		<rect id="Rectangle 3 Copy 10" x="18.937500" y="2.836060" width="2.836072" height="2.840729" transform="rotate(-90 18.937500 2.836060)" fill="#C5C5C5" fill-opacity="1.000000"/>
		<rect id="Rectangle 3 Copy 10" x="18.937500" y="2.836060" width="2.836072" height="2.840729" transform="rotate(-90 18.937500 2.836060)" stroke="#979797" stroke-opacity="0" stroke-width="0.000000"/>
		<rect id="Rectangle 3 Copy 29" x="37.876953" y="173.000122" width="2.836072" height="2.840729" transform="rotate(-90 37.876953 173.000122)" fill="#C5C5C5" fill-opacity="1.000000"/>
		<rect id="Rectangle 3 Copy 29" x="37.876953" y="173.000122" width="2.836072" height="2.840729" transform="rotate(-90 37.876953 173.000122)" stroke="#979797" stroke-opacity="0" stroke-width="0.000000"/>
		<rect id="Rectangle 3 Copy 28" x="37.876953" y="154.093872" width="2.836072" height="2.840729" transform="rotate(-90 37.876953 154.093872)" fill="#C5C5C5" fill-opacity="1.000000"/>
		<rect id="Rectangle 3 Copy 28" x="37.876953" y="154.093872" width="2.836072" height="2.840729" transform="rotate(-90 37.876953 154.093872)" stroke="#979797" stroke-opacity="0" stroke-width="0.000000"/>
		<rect id="Rectangle 3 Copy 27" x="37.876953" y="135.185669" width="2.836072" height="2.840729" transform="rotate(-90 37.876953 135.185669)" fill="#C5C5C5" fill-opacity="1.000000"/>
		<rect id="Rectangle 3 Copy 27" x="37.876953" y="135.185669" width="2.836072" height="2.840729" transform="rotate(-90 37.876953 135.185669)" stroke="#979797" stroke-opacity="0" stroke-width="0.000000"/>
		<rect id="Rectangle 3 Copy 26" x="37.876953" y="116.278442" width="2.836072" height="2.840729" transform="rotate(-90 37.876953 116.278442)" fill="#C5C5C5" fill-opacity="1.000000"/>
		<rect id="Rectangle 3 Copy 26" x="37.876953" y="116.278442" width="2.836072" height="2.840729" transform="rotate(-90 37.876953 116.278442)" stroke="#979797" stroke-opacity="0" stroke-width="0.000000"/>
		<rect id="Rectangle 3 Copy 25" x="37.876953" y="97.371704" width="2.836072" height="2.840729" transform="rotate(-90 37.876953 97.371704)" fill="#C5C5C5" fill-opacity="1.000000"/>
		<rect id="Rectangle 3 Copy 25" x="37.876953" y="97.371704" width="2.836072" height="2.840729" transform="rotate(-90 37.876953 97.371704)" stroke="#979797" stroke-opacity="0" stroke-width="0.000000"/>
		<rect id="Rectangle 3 Copy 24" x="37.876953" y="78.463989" width="2.836072" height="2.840729" transform="rotate(-90 37.876953 78.463989)" fill="#C5C5C5" fill-opacity="1.000000"/>
		<rect id="Rectangle 3 Copy 24" x="37.876953" y="78.463989" width="2.836072" height="2.840729" transform="rotate(-90 37.876953 78.463989)" stroke="#979797" stroke-opacity="0" stroke-width="0.000000"/>
		<rect id="Rectangle 3 Copy 23" x="37.876953" y="59.556763" width="2.836072" height="2.840729" transform="rotate(-90 37.876953 59.556763)" fill="#C5C5C5" fill-opacity="1.000000"/>
		<rect id="Rectangle 3 Copy 23" x="37.876953" y="59.556763" width="2.836072" height="2.840729" transform="rotate(-90 37.876953 59.556763)" stroke="#979797" stroke-opacity="0" stroke-width="0.000000"/>
		<rect id="Rectangle 3 Copy 22" x="37.876953" y="40.649536" width="2.836072" height="2.840729" transform="rotate(-90 37.876953 40.649536)" fill="#C5C5C5" fill-opacity="1.000000"/>
		<rect id="Rectangle 3 Copy 22" x="37.876953" y="40.649536" width="2.836072" height="2.840729" transform="rotate(-90 37.876953 40.649536)" stroke="#979797" stroke-opacity="0" stroke-width="0.000000"/>
		<rect id="Rectangle 3 Copy 21" x="37.876953" y="21.742310" width="2.836072" height="2.840729" transform="rotate(-90 37.876953 21.742310)" fill="#C5C5C5" fill-opacity="1.000000"/>
		<rect id="Rectangle 3 Copy 21" x="37.876953" y="21.742310" width="2.836072" height="2.840729" transform="rotate(-90 37.876953 21.742310)" stroke="#979797" stroke-opacity="0" stroke-width="0.000000"/>
		<rect id="Rectangle 3 Copy 20" x="37.876953" y="2.836060" width="2.836072" height="2.840729" transform="rotate(-90 37.876953 2.836060)" fill="#C5C5C5" fill-opacity="1.000000"/>
		<rect id="Rectangle 3 Copy 20" x="37.876953" y="2.836060" width="2.836072" height="2.840729" transform="rotate(-90 37.876953 2.836060)" stroke="#979797" stroke-opacity="0" stroke-width="0.000000"/>
		<rect id="Rectangle 3 Copy 39" x="56.815430" y="173.000122" width="2.836072" height="2.840729" transform="rotate(-90 56.815430 173.000122)" fill="#C5C5C5" fill-opacity="1.000000"/>
		<rect id="Rectangle 3 Copy 39" x="56.815430" y="173.000122" width="2.836072" height="2.840729" transform="rotate(-90 56.815430 173.000122)" stroke="#979797" stroke-opacity="0" stroke-width="0.000000"/>
		<rect id="Rectangle 3 Copy 38" x="56.815430" y="154.093872" width="2.836072" height="2.840729" transform="rotate(-90 56.815430 154.093872)" fill="#C5C5C5" fill-opacity="1.000000"/>
		<rect id="Rectangle 3 Copy 38" x="56.815430" y="154.093872" width="2.836072" height="2.840729" transform="rotate(-90 56.815430 154.093872)" stroke="#979797" stroke-opacity="0" stroke-width="0.000000"/>
		<rect id="Rectangle 3 Copy 37" x="56.815430" y="135.185669" width="2.836072" height="2.840729" transform="rotate(-90 56.815430 135.185669)" fill="#C5C5C5" fill-opacity="1.000000"/>
		<rect id="Rectangle 3 Copy 37" x="56.815430" y="135.185669" width="2.836072" height="2.840729" transform="rotate(-90 56.815430 135.185669)" stroke="#979797" stroke-opacity="0" stroke-width="0.000000"/>
		<rect id="Rectangle 3 Copy 36" x="56.815430" y="116.278442" width="2.836072" height="2.840729" transform="rotate(-90 56.815430 116.278442)" fill="#C5C5C5" fill-opacity="1.000000"/>
		<rect id="Rectangle 3 Copy 36" x="56.815430" y="116.278442" width="2.836072" height="2.840729" transform="rotate(-90 56.815430 116.278442)" stroke="#979797" stroke-opacity="0" stroke-width="0.000000"/>
		<rect id="Rectangle 3 Copy 35" x="56.815430" y="97.371704" width="2.836072" height="2.840729" transform="rotate(-90 56.815430 97.371704)" fill="#C5C5C5" fill-opacity="1.000000"/>
		<rect id="Rectangle 3 Copy 35" x="56.815430" y="97.371704" width="2.836072" height="2.840729" transform="rotate(-90 56.815430 97.371704)" stroke="#979797" stroke-opacity="0" stroke-width="0.000000"/>
		<rect id="Rectangle 3 Copy 34" x="56.815430" y="78.463989" width="2.836072" height="2.840729" transform="rotate(-90 56.815430 78.463989)" fill="#C5C5C5" fill-opacity="1.000000"/>
		<rect id="Rectangle 3 Copy 34" x="56.815430" y="78.463989" width="2.836072" height="2.840729" transform="rotate(-90 56.815430 78.463989)" stroke="#979797" stroke-opacity="0" stroke-width="0.000000"/>
		<rect id="Rectangle 3 Copy 33" x="56.815430" y="59.556763" width="2.836072" height="2.840729" transform="rotate(-90 56.815430 59.556763)" fill="#C5C5C5" fill-opacity="1.000000"/>
		<rect id="Rectangle 3 Copy 33" x="56.815430" y="59.556763" width="2.836072" height="2.840729" transform="rotate(-90 56.815430 59.556763)" stroke="#979797" stroke-opacity="0" stroke-width="0.000000"/>
		<rect id="Rectangle 3 Copy 32" x="56.815430" y="40.649536" width="2.836072" height="2.840729" transform="rotate(-90 56.815430 40.649536)" fill="#C5C5C5" fill-opacity="1.000000"/>
		<rect id="Rectangle 3 Copy 32" x="56.815430" y="40.649536" width="2.836072" height="2.840729" transform="rotate(-90 56.815430 40.649536)" stroke="#979797" stroke-opacity="0" stroke-width="0.000000"/>
		<rect id="Rectangle 3 Copy 31" x="56.815430" y="21.742310" width="2.836072" height="2.840729" transform="rotate(-90 56.815430 21.742310)" fill="#C5C5C5" fill-opacity="1.000000"/>
		<rect id="Rectangle 3 Copy 31" x="56.815430" y="21.742310" width="2.836072" height="2.840729" transform="rotate(-90 56.815430 21.742310)" stroke="#979797" stroke-opacity="0" stroke-width="0.000000"/>
		<rect id="Rectangle 3 Copy 30" x="56.815430" y="2.836060" width="2.836072" height="2.840729" transform="rotate(-90 56.815430 2.836060)" fill="#C5C5C5" fill-opacity="1.000000"/>
		<rect id="Rectangle 3 Copy 30" x="56.815430" y="2.836060" width="2.836072" height="2.840729" transform="rotate(-90 56.815430 2.836060)" stroke="#979797" stroke-opacity="0" stroke-width="0.000000"/>
		<rect id="Rectangle 3 Copy 49" x="75.752930" y="173.000122" width="2.836072" height="2.840729" transform="rotate(-90 75.752930 173.000122)" fill="#C5C5C5" fill-opacity="1.000000"/>
		<rect id="Rectangle 3 Copy 49" x="75.752930" y="173.000122" width="2.836072" height="2.840729" transform="rotate(-90 75.752930 173.000122)" stroke="#979797" stroke-opacity="0" stroke-width="0.000000"/>
		<rect id="Rectangle 3 Copy 48" x="75.752930" y="154.093872" width="2.836072" height="2.840729" transform="rotate(-90 75.752930 154.093872)" fill="#C5C5C5" fill-opacity="1.000000"/>
		<rect id="Rectangle 3 Copy 48" x="75.752930" y="154.093872" width="2.836072" height="2.840729" transform="rotate(-90 75.752930 154.093872)" stroke="#979797" stroke-opacity="0" stroke-width="0.000000"/>
		<rect id="Rectangle 3 Copy 47" x="75.752930" y="135.185669" width="2.836072" height="2.840729" transform="rotate(-90 75.752930 135.185669)" fill="#C5C5C5" fill-opacity="1.000000"/>
		<rect id="Rectangle 3 Copy 47" x="75.752930" y="135.185669" width="2.836072" height="2.840729" transform="rotate(-90 75.752930 135.185669)" stroke="#979797" stroke-opacity="0" stroke-width="0.000000"/>
		<rect id="Rectangle 3 Copy 46" x="75.752930" y="116.278442" width="2.836072" height="2.840729" transform="rotate(-90 75.752930 116.278442)" fill="#C5C5C5" fill-opacity="1.000000"/>
		<rect id="Rectangle 3 Copy 46" x="75.752930" y="116.278442" width="2.836072" height="2.840729" transform="rotate(-90 75.752930 116.278442)" stroke="#979797" stroke-opacity="0" stroke-width="0.000000"/>
		<rect id="Rectangle 3 Copy 45" x="75.752930" y="97.371704" width="2.836072" height="2.840729" transform="rotate(-90 75.752930 97.371704)" fill="#C5C5C5" fill-opacity="1.000000"/>
		<rect id="Rectangle 3 Copy 45" x="75.752930" y="97.371704" width="2.836072" height="2.840729" transform="rotate(-90 75.752930 97.371704)" stroke="#979797" stroke-opacity="0" stroke-width="0.000000"/>
		<rect id="Rectangle 3 Copy 44" x="75.752930" y="78.463989" width="2.836072" height="2.840729" transform="rotate(-90 75.752930 78.463989)" fill="#C5C5C5" fill-opacity="1.000000"/>
		<rect id="Rectangle 3 Copy 44" x="75.752930" y="78.463989" width="2.836072" height="2.840729" transform="rotate(-90 75.752930 78.463989)" stroke="#979797" stroke-opacity="0" stroke-width="0.000000"/>
		<rect id="Rectangle 3 Copy 43" x="75.752930" y="59.556763" width="2.836072" height="2.840729" transform="rotate(-90 75.752930 59.556763)" fill="#C5C5C5" fill-opacity="1.000000"/>
		<rect id="Rectangle 3 Copy 43" x="75.752930" y="59.556763" width="2.836072" height="2.840729" transform="rotate(-90 75.752930 59.556763)" stroke="#979797" stroke-opacity="0" stroke-width="0.000000"/>
		<rect id="Rectangle 3 Copy 42" x="75.752930" y="40.649536" width="2.836072" height="2.840729" transform="rotate(-90 75.752930 40.649536)" fill="#C5C5C5" fill-opacity="1.000000"/>
		<rect id="Rectangle 3 Copy 42" x="75.752930" y="40.649536" width="2.836072" height="2.840729" transform="rotate(-90 75.752930 40.649536)" stroke="#979797" stroke-opacity="0" stroke-width="0.000000"/>
		<rect id="Rectangle 3 Copy 41" x="75.752930" y="21.742310" width="2.836072" height="2.840729" transform="rotate(-90 75.752930 21.742310)" fill="#C5C5C5" fill-opacity="1.000000"/>
		<rect id="Rectangle 3 Copy 41" x="75.752930" y="21.742310" width="2.836072" height="2.840729" transform="rotate(-90 75.752930 21.742310)" stroke="#979797" stroke-opacity="0" stroke-width="0.000000"/>
		<rect id="Rectangle 3 Copy 40" x="75.752930" y="2.836060" width="2.836072" height="2.840729" transform="rotate(-90 75.752930 2.836060)" fill="#C5C5C5" fill-opacity="1.000000"/>
		<rect id="Rectangle 3 Copy 40" x="75.752930" y="2.836060" width="2.836072" height="2.840729" transform="rotate(-90 75.752930 2.836060)" stroke="#979797" stroke-opacity="0" stroke-width="0.000000"/>
		<rect id="Rectangle 3 Copy 59" x="94.691406" y="173.000122" width="2.836072" height="2.840729" transform="rotate(-90 94.691406 173.000122)" fill="#C5C5C5" fill-opacity="1.000000"/>
		<rect id="Rectangle 3 Copy 59" x="94.691406" y="173.000122" width="2.836072" height="2.840729" transform="rotate(-90 94.691406 173.000122)" stroke="#979797" stroke-opacity="0" stroke-width="0.000000"/>
		<rect id="Rectangle 3 Copy 58" x="94.691406" y="154.093872" width="2.836072" height="2.840729" transform="rotate(-90 94.691406 154.093872)" fill="#C5C5C5" fill-opacity="1.000000"/>
		<rect id="Rectangle 3 Copy 58" x="94.691406" y="154.093872" width="2.836072" height="2.840729" transform="rotate(-90 94.691406 154.093872)" stroke="#979797" stroke-opacity="0" stroke-width="0.000000"/>
		<rect id="Rectangle 3 Copy 57" x="94.691406" y="135.185669" width="2.836072" height="2.840729" transform="rotate(-90 94.691406 135.185669)" fill="#C5C5C5" fill-opacity="1.000000"/>
		<rect id="Rectangle 3 Copy 57" x="94.691406" y="135.185669" width="2.836072" height="2.840729" transform="rotate(-90 94.691406 135.185669)" stroke="#979797" stroke-opacity="0" stroke-width="0.000000"/>
		<rect id="Rectangle 3 Copy 56" x="94.691406" y="116.278442" width="2.836072" height="2.840729" transform="rotate(-90 94.691406 116.278442)" fill="#C5C5C5" fill-opacity="1.000000"/>
		<rect id="Rectangle 3 Copy 56" x="94.691406" y="116.278442" width="2.836072" height="2.840729" transform="rotate(-90 94.691406 116.278442)" stroke="#979797" stroke-opacity="0" stroke-width="0.000000"/>
		<rect id="Rectangle 3 Copy 55" x="94.691406" y="97.371704" width="2.836072" height="2.840729" transform="rotate(-90 94.691406 97.371704)" fill="#C5C5C5" fill-opacity="1.000000"/>
		<rect id="Rectangle 3 Copy 55" x="94.691406" y="97.371704" width="2.836072" height="2.840729" transform="rotate(-90 94.691406 97.371704)" stroke="#979797" stroke-opacity="0" stroke-width="0.000000"/>
		<rect id="Rectangle 3 Copy 54" x="94.691406" y="78.463989" width="2.836072" height="2.840729" transform="rotate(-90 94.691406 78.463989)" fill="#C5C5C5" fill-opacity="1.000000"/>
		<rect id="Rectangle 3 Copy 54" x="94.691406" y="78.463989" width="2.836072" height="2.840729" transform="rotate(-90 94.691406 78.463989)" stroke="#979797" stroke-opacity="0" stroke-width="0.000000"/>
		<rect id="Rectangle 3 Copy 53" x="94.691406" y="59.556763" width="2.836072" height="2.840729" transform="rotate(-90 94.691406 59.556763)" fill="#C5C5C5" fill-opacity="1.000000"/>
		<rect id="Rectangle 3 Copy 53" x="94.691406" y="59.556763" width="2.836072" height="2.840729" transform="rotate(-90 94.691406 59.556763)" stroke="#979797" stroke-opacity="0" stroke-width="0.000000"/>
		<rect id="Rectangle 3 Copy 52" x="94.691406" y="40.649536" width="2.836072" height="2.840729" transform="rotate(-90 94.691406 40.649536)" fill="#C5C5C5" fill-opacity="1.000000"/>
		<rect id="Rectangle 3 Copy 52" x="94.691406" y="40.649536" width="2.836072" height="2.840729" transform="rotate(-90 94.691406 40.649536)" stroke="#979797" stroke-opacity="0" stroke-width="0.000000"/>
		<rect id="Rectangle 3 Copy 51" x="94.691406" y="21.742310" width="2.836072" height="2.840729" transform="rotate(-90 94.691406 21.742310)" fill="#C5C5C5" fill-opacity="1.000000"/>
		<rect id="Rectangle 3 Copy 51" x="94.691406" y="21.742310" width="2.836072" height="2.840729" transform="rotate(-90 94.691406 21.742310)" stroke="#979797" stroke-opacity="0" stroke-width="0.000000"/>
		<rect id="Rectangle 3 Copy 50" x="94.691406" y="2.836060" width="2.836072" height="2.840729" transform="rotate(-90 94.691406 2.836060)" fill="#C5C5C5" fill-opacity="1.000000"/>
		<rect id="Rectangle 3 Copy 50" x="94.691406" y="2.836060" width="2.836072" height="2.840729" transform="rotate(-90 94.691406 2.836060)" stroke="#979797" stroke-opacity="0" stroke-width="0.000000"/>
		<rect id="Rectangle 3 Copy 69" x="113.628906" y="173.000122" width="2.836072" height="2.840729" transform="rotate(-90 113.628906 173.000122)" fill="#C5C5C5" fill-opacity="1.000000"/>
		<rect id="Rectangle 3 Copy 69" x="113.628906" y="173.000122" width="2.836072" height="2.840729" transform="rotate(-90 113.628906 173.000122)" stroke="#979797" stroke-opacity="0" stroke-width="0.000000"/>
		<rect id="Rectangle 3 Copy 68" x="113.628906" y="154.093872" width="2.836072" height="2.840729" transform="rotate(-90 113.628906 154.093872)" fill="#C5C5C5" fill-opacity="1.000000"/>
		<rect id="Rectangle 3 Copy 68" x="113.628906" y="154.093872" width="2.836072" height="2.840729" transform="rotate(-90 113.628906 154.093872)" stroke="#979797" stroke-opacity="0" stroke-width="0.000000"/>
		<rect id="Rectangle 3 Copy 67" x="113.628906" y="135.185669" width="2.836072" height="2.840729" transform="rotate(-90 113.628906 135.185669)" fill="#C5C5C5" fill-opacity="1.000000"/>
		<rect id="Rectangle 3 Copy 67" x="113.628906" y="135.185669" width="2.836072" height="2.840729" transform="rotate(-90 113.628906 135.185669)" stroke="#979797" stroke-opacity="0" stroke-width="0.000000"/>
		<rect id="Rectangle 3 Copy 66" x="113.628906" y="116.278442" width="2.836072" height="2.840729" transform="rotate(-90 113.628906 116.278442)" fill="#C5C5C5" fill-opacity="1.000000"/>
		<rect id="Rectangle 3 Copy 66" x="113.628906" y="116.278442" width="2.836072" height="2.840729" transform="rotate(-90 113.628906 116.278442)" stroke="#979797" stroke-opacity="0" stroke-width="0.000000"/>
		<rect id="Rectangle 3 Copy 65" x="113.628906" y="97.371704" width="2.836072" height="2.840729" transform="rotate(-90 113.628906 97.371704)" fill="#C5C5C5" fill-opacity="1.000000"/>
		<rect id="Rectangle 3 Copy 65" x="113.628906" y="97.371704" width="2.836072" height="2.840729" transform="rotate(-90 113.628906 97.371704)" stroke="#979797" stroke-opacity="0" stroke-width="0.000000"/>
		<rect id="Rectangle 3 Copy 64" x="113.628906" y="78.463989" width="2.836072" height="2.840729" transform="rotate(-90 113.628906 78.463989)" fill="#C5C5C5" fill-opacity="1.000000"/>
		<rect id="Rectangle 3 Copy 64" x="113.628906" y="78.463989" width="2.836072" height="2.840729" transform="rotate(-90 113.628906 78.463989)" stroke="#979797" stroke-opacity="0" stroke-width="0.000000"/>
		<rect id="Rectangle 3 Copy 63" x="113.628906" y="59.556763" width="2.836072" height="2.840729" transform="rotate(-90 113.628906 59.556763)" fill="#C5C5C5" fill-opacity="1.000000"/>
		<rect id="Rectangle 3 Copy 63" x="113.628906" y="59.556763" width="2.836072" height="2.840729" transform="rotate(-90 113.628906 59.556763)" stroke="#979797" stroke-opacity="0" stroke-width="0.000000"/>
		<rect id="Rectangle 3 Copy 62" x="113.628906" y="40.649536" width="2.836072" height="2.840729" transform="rotate(-90 113.628906 40.649536)" fill="#C5C5C5" fill-opacity="1.000000"/>
		<rect id="Rectangle 3 Copy 62" x="113.628906" y="40.649536" width="2.836072" height="2.840729" transform="rotate(-90 113.628906 40.649536)" stroke="#979797" stroke-opacity="0" stroke-width="0.000000"/>
		<rect id="Rectangle 3 Copy 61" x="113.628906" y="21.742310" width="2.836072" height="2.840729" transform="rotate(-90 113.628906 21.742310)" fill="#C5C5C5" fill-opacity="1.000000"/>
		<rect id="Rectangle 3 Copy 61" x="113.628906" y="21.742310" width="2.836072" height="2.840729" transform="rotate(-90 113.628906 21.742310)" stroke="#979797" stroke-opacity="0" stroke-width="0.000000"/>
		<rect id="Rectangle 3 Copy 60" x="113.628906" y="2.836060" width="2.836072" height="2.840729" transform="rotate(-90 113.628906 2.836060)" fill="#C5C5C5" fill-opacity="1.000000"/>
		<rect id="Rectangle 3 Copy 60" x="113.628906" y="2.836060" width="2.836072" height="2.840729" transform="rotate(-90 113.628906 2.836060)" stroke="#979797" stroke-opacity="0" stroke-width="0.000000"/>
		<rect id="Rectangle 3 Copy 79" x="132.566406" y="173.000122" width="2.836072" height="2.840729" transform="rotate(-90 132.566406 173.000122)" fill="#C5C5C5" fill-opacity="1.000000"/>
		<rect id="Rectangle 3 Copy 79" x="132.566406" y="173.000122" width="2.836072" height="2.840729" transform="rotate(-90 132.566406 173.000122)" stroke="#979797" stroke-opacity="0" stroke-width="0.000000"/>
		<rect id="Rectangle 3 Copy 78" x="132.568359" y="154.093872" width="2.836072" height="2.840729" transform="rotate(-90 132.568359 154.093872)" fill="#C5C5C5" fill-opacity="1.000000"/>
		<rect id="Rectangle 3 Copy 78" x="132.568359" y="154.093872" width="2.836072" height="2.840729" transform="rotate(-90 132.568359 154.093872)" stroke="#979797" stroke-opacity="0" stroke-width="0.000000"/>
		<rect id="Rectangle 3 Copy 77" x="132.568359" y="135.185669" width="2.836072" height="2.840729" transform="rotate(-90 132.568359 135.185669)" fill="#C5C5C5" fill-opacity="1.000000"/>
		<rect id="Rectangle 3 Copy 77" x="132.568359" y="135.185669" width="2.836072" height="2.840729" transform="rotate(-90 132.568359 135.185669)" stroke="#979797" stroke-opacity="0" stroke-width="0.000000"/>
		<rect id="Rectangle 3 Copy 76" x="132.568359" y="116.278442" width="2.836072" height="2.840729" transform="rotate(-90 132.568359 116.278442)" fill="#C5C5C5" fill-opacity="1.000000"/>
		<rect id="Rectangle 3 Copy 76" x="132.568359" y="116.278442" width="2.836072" height="2.840729" transform="rotate(-90 132.568359 116.278442)" stroke="#979797" stroke-opacity="0" stroke-width="0.000000"/>
		<rect id="Rectangle 3 Copy 75" x="132.568359" y="97.371704" width="2.836072" height="2.840729" transform="rotate(-90 132.568359 97.371704)" fill="#C5C5C5" fill-opacity="1.000000"/>
		<rect id="Rectangle 3 Copy 75" x="132.568359" y="97.371704" width="2.836072" height="2.840729" transform="rotate(-90 132.568359 97.371704)" stroke="#979797" stroke-opacity="0" stroke-width="0.000000"/>
		<rect id="Rectangle 3 Copy 74" x="132.568359" y="78.463989" width="2.836072" height="2.840729" transform="rotate(-90 132.568359 78.463989)" fill="#C5C5C5" fill-opacity="1.000000"/>
		<rect id="Rectangle 3 Copy 74" x="132.568359" y="78.463989" width="2.836072" height="2.840729" transform="rotate(-90 132.568359 78.463989)" stroke="#979797" stroke-opacity="0" stroke-width="0.000000"/>
		<rect id="Rectangle 3 Copy 73" x="132.568359" y="59.556763" width="2.836072" height="2.840729" transform="rotate(-90 132.568359 59.556763)" fill="#C5C5C5" fill-opacity="1.000000"/>
		<rect id="Rectangle 3 Copy 73" x="132.568359" y="59.556763" width="2.836072" height="2.840729" transform="rotate(-90 132.568359 59.556763)" stroke="#979797" stroke-opacity="0" stroke-width="0.000000"/>
		<rect id="Rectangle 3 Copy 72" x="132.568359" y="40.649536" width="2.836072" height="2.840729" transform="rotate(-90 132.568359 40.649536)" fill="#C5C5C5" fill-opacity="1.000000"/>
		<rect id="Rectangle 3 Copy 72" x="132.568359" y="40.649536" width="2.836072" height="2.840729" transform="rotate(-90 132.568359 40.649536)" stroke="#979797" stroke-opacity="0" stroke-width="0.000000"/>
		<rect id="Rectangle 3 Copy 71" x="132.568359" y="21.742310" width="2.836072" height="2.840729" transform="rotate(-90 132.568359 21.742310)" fill="#C5C5C5" fill-opacity="1.000000"/>
		<rect id="Rectangle 3 Copy 71" x="132.568359" y="21.742310" width="2.836072" height="2.840729" transform="rotate(-90 132.568359 21.742310)" stroke="#979797" stroke-opacity="0" stroke-width="0.000000"/>
		<rect id="Rectangle 3 Copy 70" x="132.568359" y="2.836060" width="2.836072" height="2.840729" transform="rotate(-90 132.568359 2.836060)" fill="#C5C5C5" fill-opacity="1.000000"/>
		<rect id="Rectangle 3 Copy 70" x="132.568359" y="2.836060" width="2.836072" height="2.840729" transform="rotate(-90 132.568359 2.836060)" stroke="#979797" stroke-opacity="0" stroke-width="0.000000"/>
		<rect id="Rectangle 3 Copy 89" x="151.505859" y="173.000122" width="2.836072" height="2.840729" transform="rotate(-90 151.505859 173.000122)" fill="#C5C5C5" fill-opacity="1.000000"/>
		<rect id="Rectangle 3 Copy 89" x="151.505859" y="173.000122" width="2.836072" height="2.840729" transform="rotate(-90 151.505859 173.000122)" stroke="#979797" stroke-opacity="0" stroke-width="0.000000"/>
		<rect id="Rectangle 3 Copy 88" x="151.505859" y="154.093872" width="2.836072" height="2.840729" transform="rotate(-90 151.505859 154.093872)" fill="#C5C5C5" fill-opacity="1.000000"/>
		<rect id="Rectangle 3 Copy 88" x="151.505859" y="154.093872" width="2.836072" height="2.840729" transform="rotate(-90 151.505859 154.093872)" stroke="#979797" stroke-opacity="0" stroke-width="0.000000"/>
		<rect id="Rectangle 3 Copy 87" x="151.505859" y="135.185669" width="2.836072" height="2.840729" transform="rotate(-90 151.505859 135.185669)" fill="#C5C5C5" fill-opacity="1.000000"/>
		<rect id="Rectangle 3 Copy 87" x="151.505859" y="135.185669" width="2.836072" height="2.840729" transform="rotate(-90 151.505859 135.185669)" stroke="#979797" stroke-opacity="0" stroke-width="0.000000"/>
		<rect id="Rectangle 3 Copy 86" x="151.505859" y="116.278442" width="2.836072" height="2.840729" transform="rotate(-90 151.505859 116.278442)" fill="#C5C5C5" fill-opacity="1.000000"/>
		<rect id="Rectangle 3 Copy 86" x="151.505859" y="116.278442" width="2.836072" height="2.840729" transform="rotate(-90 151.505859 116.278442)" stroke="#979797" stroke-opacity="0" stroke-width="0.000000"/>
		<rect id="Rectangle 3 Copy 85" x="151.505859" y="97.371704" width="2.836072" height="2.840729" transform="rotate(-90 151.505859 97.371704)" fill="#C5C5C5" fill-opacity="1.000000"/>
		<rect id="Rectangle 3 Copy 85" x="151.505859" y="97.371704" width="2.836072" height="2.840729" transform="rotate(-90 151.505859 97.371704)" stroke="#979797" stroke-opacity="0" stroke-width="0.000000"/>
		<rect id="Rectangle 3 Copy 84" x="151.505859" y="78.463989" width="2.836072" height="2.840729" transform="rotate(-90 151.505859 78.463989)" fill="#C5C5C5" fill-opacity="1.000000"/>
		<rect id="Rectangle 3 Copy 84" x="151.505859" y="78.463989" width="2.836072" height="2.840729" transform="rotate(-90 151.505859 78.463989)" stroke="#979797" stroke-opacity="0" stroke-width="0.000000"/>
		<rect id="Rectangle 3 Copy 83" x="151.505859" y="59.556763" width="2.836072" height="2.840729" transform="rotate(-90 151.505859 59.556763)" fill="#C5C5C5" fill-opacity="1.000000"/>
		<rect id="Rectangle 3 Copy 83" x="151.505859" y="59.556763" width="2.836072" height="2.840729" transform="rotate(-90 151.505859 59.556763)" stroke="#979797" stroke-opacity="0" stroke-width="0.000000"/>
		<rect id="Rectangle 3 Copy 82" x="151.505859" y="40.649536" width="2.836072" height="2.840729" transform="rotate(-90 151.505859 40.649536)" fill="#C5C5C5" fill-opacity="1.000000"/>
		<rect id="Rectangle 3 Copy 82" x="151.505859" y="40.649536" width="2.836072" height="2.840729" transform="rotate(-90 151.505859 40.649536)" stroke="#979797" stroke-opacity="0" stroke-width="0.000000"/>
		<rect id="Rectangle 3 Copy 81" x="151.505859" y="21.742310" width="2.836072" height="2.840729" transform="rotate(-90 151.505859 21.742310)" fill="#C5C5C5" fill-opacity="1.000000"/>
		<rect id="Rectangle 3 Copy 81" x="151.505859" y="21.742310" width="2.836072" height="2.840729" transform="rotate(-90 151.505859 21.742310)" stroke="#979797" stroke-opacity="0" stroke-width="0.000000"/>
		<rect id="Rectangle 3 Copy 80" x="151.505859" y="2.836060" width="2.836072" height="2.840729" transform="rotate(-90 151.505859 2.836060)" fill="#C5C5C5" fill-opacity="1.000000"/>
		<rect id="Rectangle 3 Copy 80" x="151.505859" y="2.836060" width="2.836072" height="2.840729" transform="rotate(-90 151.505859 2.836060)" stroke="#979797" stroke-opacity="0" stroke-width="0.000000"/>
		<rect id="Rectangle 3 Copy 99" x="170.443359" y="173.000122" width="2.836072" height="2.840729" transform="rotate(-90 170.443359 173.000122)" fill="#C5C5C5" fill-opacity="1.000000"/>
		<rect id="Rectangle 3 Copy 99" x="170.443359" y="173.000122" width="2.836072" height="2.840729" transform="rotate(-90 170.443359 173.000122)" stroke="#979797" stroke-opacity="0" stroke-width="0.000000"/>
		<rect id="Rectangle 3 Copy 98" x="170.443359" y="154.093872" width="2.836072" height="2.840729" transform="rotate(-90 170.443359 154.093872)" fill="#C5C5C5" fill-opacity="1.000000"/>
		<rect id="Rectangle 3 Copy 98" x="170.443359" y="154.093872" width="2.836072" height="2.840729" transform="rotate(-90 170.443359 154.093872)" stroke="#979797" stroke-opacity="0" stroke-width="0.000000"/>
		<rect id="Rectangle 3 Copy 97" x="170.443359" y="135.185669" width="2.836072" height="2.840729" transform="rotate(-90 170.443359 135.185669)" fill="#C5C5C5" fill-opacity="1.000000"/>
		<rect id="Rectangle 3 Copy 97" x="170.443359" y="135.185669" width="2.836072" height="2.840729" transform="rotate(-90 170.443359 135.185669)" stroke="#979797" stroke-opacity="0" stroke-width="0.000000"/>
		<rect id="Rectangle 3 Copy 96" x="170.443359" y="116.278442" width="2.836072" height="2.840729" transform="rotate(-90 170.443359 116.278442)" fill="#C5C5C5" fill-opacity="1.000000"/>
		<rect id="Rectangle 3 Copy 96" x="170.443359" y="116.278442" width="2.836072" height="2.840729" transform="rotate(-90 170.443359 116.278442)" stroke="#979797" stroke-opacity="0" stroke-width="0.000000"/>
		<rect id="Rectangle 3 Copy 95" x="170.443359" y="97.371704" width="2.836072" height="2.840729" transform="rotate(-90 170.443359 97.371704)" fill="#C5C5C5" fill-opacity="1.000000"/>
		<rect id="Rectangle 3 Copy 95" x="170.443359" y="97.371704" width="2.836072" height="2.840729" transform="rotate(-90 170.443359 97.371704)" stroke="#979797" stroke-opacity="0" stroke-width="0.000000"/>
		<rect id="Rectangle 3 Copy 94" x="170.443359" y="78.463989" width="2.836072" height="2.840729" transform="rotate(-90 170.443359 78.463989)" fill="#C5C5C5" fill-opacity="1.000000"/>
		<rect id="Rectangle 3 Copy 94" x="170.443359" y="78.463989" width="2.836072" height="2.840729" transform="rotate(-90 170.443359 78.463989)" stroke="#979797" stroke-opacity="0" stroke-width="0.000000"/>
		<rect id="Rectangle 3 Copy 93" x="170.443359" y="59.556763" width="2.836072" height="2.840729" transform="rotate(-90 170.443359 59.556763)" fill="#C5C5C5" fill-opacity="1.000000"/>
		<rect id="Rectangle 3 Copy 93" x="170.443359" y="59.556763" width="2.836072" height="2.840729" transform="rotate(-90 170.443359 59.556763)" stroke="#979797" stroke-opacity="0" stroke-width="0.000000"/>
		<rect id="Rectangle 3 Copy 92" x="170.443359" y="40.649536" width="2.836072" height="2.840729" transform="rotate(-90 170.443359 40.649536)" fill="#C5C5C5" fill-opacity="1.000000"/>
		<rect id="Rectangle 3 Copy 92" x="170.443359" y="40.649536" width="2.836072" height="2.840729" transform="rotate(-90 170.443359 40.649536)" stroke="#979797" stroke-opacity="0" stroke-width="0.000000"/>
		<rect id="Rectangle 3 Copy 91" x="170.443359" y="21.742310" width="2.836072" height="2.840729" transform="rotate(-90 170.443359 21.742310)" fill="#C5C5C5" fill-opacity="1.000000"/>
		<rect id="Rectangle 3 Copy 91" x="170.443359" y="21.742310" width="2.836072" height="2.840729" transform="rotate(-90 170.443359 21.742310)" stroke="#979797" stroke-opacity="0" stroke-width="0.000000"/>
		<rect id="Rectangle 3 Copy 90" x="170.443359" y="2.836060" width="2.836072" height="2.840729" transform="rotate(-90 170.443359 2.836060)" fill="#C5C5C5" fill-opacity="1.000000"/>
		<rect id="Rectangle 3 Copy 90" x="170.443359" y="2.836060" width="2.836072" height="2.840729" transform="rotate(-90 170.443359 2.836060)" stroke="#979797" stroke-opacity="0" stroke-width="0.000000"/>
		<rect id="Rectangle 3 Copy 109" x="189.381836" y="173.000122" width="2.836072" height="2.840729" transform="rotate(-90 189.381836 173.000122)" fill="#C5C5C5" fill-opacity="1.000000"/>
		<rect id="Rectangle 3 Copy 109" x="189.381836" y="173.000122" width="2.836072" height="2.840729" transform="rotate(-90 189.381836 173.000122)" stroke="#979797" stroke-opacity="0" stroke-width="0.000000"/>
		<rect id="Rectangle 3 Copy 108" x="189.382812" y="154.093872" width="2.836072" height="2.840729" transform="rotate(-90 189.382812 154.093872)" fill="#C5C5C5" fill-opacity="1.000000"/>
		<rect id="Rectangle 3 Copy 108" x="189.382812" y="154.093872" width="2.836072" height="2.840729" transform="rotate(-90 189.382812 154.093872)" stroke="#979797" stroke-opacity="0" stroke-width="0.000000"/>
		<rect id="Rectangle 3 Copy 107" x="189.382812" y="135.185669" width="2.836072" height="2.840729" transform="rotate(-90 189.382812 135.185669)" fill="#C5C5C5" fill-opacity="1.000000"/>
		<rect id="Rectangle 3 Copy 107" x="189.382812" y="135.185669" width="2.836072" height="2.840729" transform="rotate(-90 189.382812 135.185669)" stroke="#979797" stroke-opacity="0" stroke-width="0.000000"/>
		<rect id="Rectangle 3 Copy 106" x="189.382812" y="116.278442" width="2.836072" height="2.840729" transform="rotate(-90 189.382812 116.278442)" fill="#C5C5C5" fill-opacity="1.000000"/>
		<rect id="Rectangle 3 Copy 106" x="189.382812" y="116.278442" width="2.836072" height="2.840729" transform="rotate(-90 189.382812 116.278442)" stroke="#979797" stroke-opacity="0" stroke-width="0.000000"/>
		<rect id="Rectangle 3 Copy 105" x="189.382812" y="97.371704" width="2.836072" height="2.840729" transform="rotate(-90 189.382812 97.371704)" fill="#C5C5C5" fill-opacity="1.000000"/>
		<rect id="Rectangle 3 Copy 105" x="189.382812" y="97.371704" width="2.836072" height="2.840729" transform="rotate(-90 189.382812 97.371704)" stroke="#979797" stroke-opacity="0" stroke-width="0.000000"/>
		<rect id="Rectangle 3 Copy 104" x="189.382812" y="78.463989" width="2.836072" height="2.840729" transform="rotate(-90 189.382812 78.463989)" fill="#C5C5C5" fill-opacity="1.000000"/>
		<rect id="Rectangle 3 Copy 104" x="189.382812" y="78.463989" width="2.836072" height="2.840729" transform="rotate(-90 189.382812 78.463989)" stroke="#979797" stroke-opacity="0" stroke-width="0.000000"/>
		<rect id="Rectangle 3 Copy 103" x="189.382812" y="59.556763" width="2.836072" height="2.840729" transform="rotate(-90 189.382812 59.556763)" fill="#C5C5C5" fill-opacity="1.000000"/>
		<rect id="Rectangle 3 Copy 103" x="189.382812" y="59.556763" width="2.836072" height="2.840729" transform="rotate(-90 189.382812 59.556763)" stroke="#979797" stroke-opacity="0" stroke-width="0.000000"/>
		<rect id="Rectangle 3 Copy 102" x="189.382812" y="40.649536" width="2.836072" height="2.840729" transform="rotate(-90 189.382812 40.649536)" fill="#C5C5C5" fill-opacity="1.000000"/>
		<rect id="Rectangle 3 Copy 102" x="189.382812" y="40.649536" width="2.836072" height="2.840729" transform="rotate(-90 189.382812 40.649536)" stroke="#979797" stroke-opacity="0" stroke-width="0.000000"/>
		<rect id="Rectangle 3 Copy 101" x="189.382812" y="21.742310" width="2.836072" height="2.840729" transform="rotate(-90 189.382812 21.742310)" fill="#C5C5C5" fill-opacity="1.000000"/>
		<rect id="Rectangle 3 Copy 101" x="189.382812" y="21.742310" width="2.836072" height="2.840729" transform="rotate(-90 189.382812 21.742310)" stroke="#979797" stroke-opacity="0" stroke-width="0.000000"/>
		<rect id="Rectangle 3 Copy 100" x="189.382812" y="2.836060" width="2.836072" height="2.840729" transform="rotate(-90 189.382812 2.836060)" fill="#C5C5C5" fill-opacity="1.000000"/>
		<rect id="Rectangle 3 Copy 100" x="189.382812" y="2.836060" width="2.836072" height="2.840729" transform="rotate(-90 189.382812 2.836060)" stroke="#979797" stroke-opacity="0" stroke-width="0.000000"/>
	</g>
</svg>
